# Blender v2.79 (sub 0) OBJ File: 'Chair.blend'
# www.blender.org
mtllib Chair.mtl
o Cube.003_Cube.007
v -0.200000 0.020000 0.200000
v -0.032008 0.110000 0.032008
v -0.200000 0.020000 -0.200000
v -0.032008 0.110000 -0.032008
v 0.200000 0.020000 0.200000
v 0.032008 0.110000 0.032008
v 0.200000 0.020000 -0.200000
v 0.032008 0.110000 -0.032008
v -0.150000 0.020000 -0.200000
v -0.200000 0.020000 -0.150000
v -0.150000 0.020000 -0.150000
v 0.000000 0.070000 0.000000
v -0.045267 0.110000 0.000000
v 0.000000 0.110000 -0.045267
v 0.045267 0.110000 0.000000
v 0.000000 0.110000 0.045267
v -0.050000 0.070000 0.000000
v 0.000000 0.070000 -0.050000
v 0.050000 0.070000 0.000000
v 0.000000 0.070000 0.050000
v -0.200000 0.020000 0.150000
v -0.150000 0.020000 0.200000
v -0.150000 0.020000 0.150000
v 0.150000 0.020000 0.200000
v 0.200000 0.020000 0.150000
v 0.150000 0.020000 0.150000
v 0.200000 0.020000 -0.150000
v 0.150000 0.020000 -0.200000
v 0.150000 0.020000 -0.150000
v 0.200000 0.000000 -0.200000
v 0.200000 0.000000 -0.150000
v 0.150000 0.000000 -0.200000
v 0.150000 0.000000 -0.150000
v -0.200000 0.000000 -0.200000
v -0.150000 0.000000 -0.200000
v -0.200000 0.000000 -0.150000
v -0.150000 0.000000 -0.150000
v -0.200000 0.000000 0.200000
v -0.200000 0.000000 0.150000
v -0.150000 0.000000 0.200000
v -0.150000 0.000000 0.150000
v 0.200000 0.000000 0.200000
v 0.150000 0.000000 0.200000
v 0.200000 0.000000 0.150000
v 0.150000 0.000000 0.150000
v -0.021339 0.385000 0.021339
v -0.100000 0.435000 0.050000
v -0.021339 0.385000 -0.021339
v -0.100000 0.435000 -0.050000
v 0.021339 0.385000 0.021339
v 0.100000 0.435000 0.050000
v 0.021339 0.385000 -0.021339
v 0.100000 0.435000 -0.050000
v -0.135000 0.430000 0.175000
v -0.145000 0.450000 0.175000
v -0.135000 0.430000 -0.175000
v -0.145000 0.450000 -0.175000
v 0.195000 0.430000 0.175000
v 0.195000 0.450000 0.175000
v 0.195000 0.430000 -0.175000
v 0.195000 0.450000 -0.175000
v -0.190000 0.490000 0.020000
v -0.170000 0.720000 0.020000
v -0.190000 0.490000 -0.020000
v -0.170000 0.720000 -0.020000
v -0.170000 0.490000 0.020000
v -0.160000 0.650000 0.020000
v -0.170000 0.490000 -0.020000
v -0.160000 0.650000 -0.020000
v -0.170000 0.430000 0.020000
v -0.170000 0.430000 -0.020000
v -0.150000 0.430000 0.020000
v -0.150000 0.430000 -0.020000
v -0.100000 0.390000 0.020000
v -0.100000 0.390000 -0.020000
v -0.100000 0.410000 0.020000
v -0.100000 0.410000 -0.020000
v -0.138142 0.595163 0.150000
v -0.181554 0.841365 0.150000
v -0.138142 0.595163 -0.150000
v -0.181554 0.841365 -0.150000
v -0.118446 0.598635 0.150000
v -0.161858 0.844837 0.150000
v -0.118446 0.598635 -0.150000
v -0.161858 0.844837 -0.150000
v -0.050000 0.110000 0.000000
v -0.050000 0.110000 -0.050000
v 0.000000 0.110000 -0.050000
v 0.050000 0.110000 -0.050000
v 0.050000 0.110000 0.000000
v 0.050000 0.110000 0.050000
v 0.000000 0.110000 0.050000
v -0.050000 0.110000 0.050000
v -0.032008 0.250000 0.032008
v -0.032008 0.250000 -0.032008
v 0.032008 0.250000 0.032008
v 0.032008 0.250000 -0.032008
v -0.045267 0.250000 0.000000
v 0.000000 0.250000 -0.045267
v 0.045267 0.250000 0.000000
v 0.000000 0.250000 0.045267
v -0.100000 0.385000 -0.050000
v -0.100000 0.385000 0.050000
v 0.100000 0.385000 -0.050000
v 0.100000 0.385000 0.050000
v -0.030178 0.385000 0.000000
v 0.000000 0.385000 -0.030178
v 0.030178 0.385000 0.000000
v 0.000000 0.385000 0.030178
v -0.021339 0.255000 0.021339
v -0.021339 0.255000 -0.021339
v 0.021339 0.255000 0.021339
v 0.021339 0.255000 -0.021339
v -0.030178 0.255000 0.000000
v 0.000000 0.255000 -0.030178
v 0.030178 0.255000 0.000000
v 0.000000 0.255000 0.030178
vt 0.784448 0.935159
vt 0.971498 0.935160
vt 0.941964 0.966291
vt 0.754914 0.966291
vt 0.851876 0.180842
vt 0.869041 0.180842
vt 0.869041 0.223754
vt 0.851876 0.223754
vt 0.404518 0.916977
vt 0.434052 0.948109
vt 0.247002 0.948108
vt 0.217468 0.916977
vt 0.929118 0.301586
vt 0.911953 0.301586
vt 0.911953 0.258674
vt 0.929118 0.258674
vt 0.021690 0.851841
vt 0.150426 0.701710
vt 0.193338 0.701710
vt 0.064602 0.851841
vt 0.239126 0.981523
vt 0.000295 0.830447
vt 0.000295 0.787534
vt 0.150426 0.658798
vt 0.247003 0.885845
vt 0.239127 0.852431
vt 0.434052 0.885846
vt 0.545985 0.953254
vt 0.733034 0.953254
vt 0.538109 0.986669
vt 0.000295 0.487149
vt 0.150426 0.615886
vt 0.000295 0.530061
vt 0.021690 0.465754
vt 0.064602 0.465754
vt 0.193338 0.615886
vt 0.545985 0.890991
vt 0.538109 0.857577
vt 0.733034 0.890991
vt 0.195220 0.852431
vt 0.187345 0.885845
vt 0.000295 0.885846
vt 0.236251 0.615886
vt 0.322075 0.465754
vt 0.364987 0.465754
vt 0.386382 0.487149
vt 0.386382 0.530061
vt 0.236251 0.658798
vt 0.195221 0.981523
vt 0.000295 0.948109
vt 0.187345 0.948108
vt 0.941964 0.904028
vt 0.754914 0.904028
vt 0.949840 0.870613
vt 0.386382 0.830447
vt 0.236251 0.701710
vt 0.386382 0.787534
vt 0.364987 0.851841
vt 0.322075 0.851841
vt 0.949840 0.999705
vt 0.703500 0.922123
vt 0.516450 0.922123
vt 0.029829 0.916977
vt 0.216879 0.916977
vt 0.851876 0.103011
vt 0.869041 0.103011
vt 0.869041 0.145923
vt 0.851876 0.145923
vt 0.936838 0.030638
vt 0.924700 0.042776
vt 0.894357 0.012432
vt 0.906494 0.000295
vt 0.635388 0.612551
vt 0.665122 0.612551
vt 0.665122 0.732705
vt 0.635387 0.732705
vt 0.894357 0.073119
vt 0.864014 0.042776
vt 0.882220 0.000295
vt 0.851876 0.030638
vt 0.851876 0.054913
vt 0.882220 0.085257
vt 0.906494 0.085257
vt 0.936838 0.054913
vt 0.911953 0.103011
vt 0.911953 0.145923
vt 0.929118 0.145923
vt 0.929118 0.103011
vt 0.869041 0.163088
vt 0.911953 0.163088
vt 0.911953 0.085846
vt 0.869041 0.085846
vt 0.911953 0.180842
vt 0.911953 0.223754
vt 0.911953 0.163677
vt 0.869041 0.163677
vt 0.929118 0.223754
vt 0.929118 0.180842
vt 0.869041 0.240919
vt 0.911953 0.240919
vt 0.869041 0.301586
vt 0.869041 0.258674
vt 0.911953 0.241509
vt 0.869041 0.241509
vt 0.851876 0.258674
vt 0.851876 0.301586
vt 0.869041 0.318751
vt 0.911953 0.318751
vt 0.883651 0.870024
vt 0.857903 0.848568
vt 0.857903 0.831403
vt 0.883651 0.827112
vt 0.797826 0.827112
vt 0.754914 0.827112
vt 0.754914 0.655463
vt 0.797826 0.655463
vt 0.797826 0.612551
vt 0.883651 0.612551
vt 0.883651 0.655463
vt 0.926563 0.655463
vt 0.926563 0.827112
vt 0.640971 0.202076
vt 0.533622 0.283684
vt 0.533755 0.000325
vt 0.641027 0.030637
vt 0.533622 0.611961
vt 0.533622 0.592764
vt 0.834116 0.592763
vt 0.834116 0.611961
vt 0.851287 0.584178
vt 0.834115 0.300855
vt 0.851287 0.300855
vt 0.834115 0.283684
vt 0.533622 0.300855
vt 0.516451 0.300855
vt 0.516450 0.584178
vt 0.833999 0.000295
vt 0.726713 0.030614
vt 0.438401 0.589228
vt 0.438401 0.787369
vt 0.404071 0.787369
vt 0.404072 0.589228
vt 0.390317 0.728261
vt 0.386971 0.590715
vt 0.489821 0.591550
vt 0.486476 0.729096
vt 0.452156 0.728262
vt 0.455502 0.590715
vt 0.454685 0.583800
vt 0.438401 0.534948
vt 0.454685 0.529520
vt 0.403982 0.128811
vt 0.515861 0.239075
vt 0.403977 0.343372
vt 0.480918 0.524789
vt 0.446918 0.520045
vt 0.453305 0.474270
vt 0.487305 0.479015
vt 0.387788 0.583800
vt 0.387788 0.529520
vt 0.404072 0.534948
vt 0.489015 0.583800
vt 0.489015 0.529520
vt 0.797826 0.870024
vt 0.823574 0.848568
vt 0.404072 0.465754
vt 0.438401 0.465754
vt 0.395556 0.520045
vt 0.389168 0.474270
vt 0.275247 0.060978
vt 0.276019 0.000296
vt 0.386817 0.111645
vt 0.386812 0.343371
vt 0.386817 0.128810
vt 0.129339 0.343365
vt 0.129344 0.128804
vt 0.112174 0.343365
vt 0.112179 0.128804
vt 0.129344 0.111639
vt 0.386811 0.360536
vt 0.129338 0.360530
vt 0.240917 0.060977
vt 0.240148 0.000295
vt 0.000295 0.239062
vt 0.275237 0.465165
vt 0.240907 0.465164
vt 0.823574 0.831403
vt 0.726782 0.202055
vt 0.232188 0.658798
vt 0.220809 0.631327
vt 0.193338 0.619948
vt 0.165867 0.631327
vt 0.154489 0.658798
vt 0.165867 0.686269
vt 0.193338 0.697647
vt 0.220809 0.686269
vt 0.516450 0.612551
vt 0.546185 0.612551
vt 0.546185 0.732705
vt 0.516450 0.732705
vt 0.605653 0.612551
vt 0.605653 0.732705
vt 0.724590 0.612551
vt 0.754325 0.612551
vt 0.754325 0.732705
vt 0.724590 0.732705
vt 0.694856 0.612551
vt 0.694856 0.732705
vt 0.575919 0.612551
vt 0.575919 0.732705
vt 0.866638 0.741287
vt 0.840739 0.767187
vt 0.814839 0.741287
vt 0.840739 0.715388
vt 0.561052 0.856987
vt 0.541229 0.856987
vt 0.541229 0.745416
vt 0.561052 0.745416
vt 0.660166 0.856987
vt 0.640343 0.856987
vt 0.640343 0.745415
vt 0.660166 0.745415
vt 0.600698 0.856987
vt 0.580875 0.856987
vt 0.580875 0.745416
vt 0.600697 0.745416
vt 0.679989 0.856987
vt 0.679989 0.745415
vt 0.620520 0.856987
vt 0.620520 0.745416
vt 0.521406 0.856987
vt 0.521406 0.745416
vt 0.570963 0.745416
vt 0.551140 0.745416
vt 0.600697 0.745416
vt 0.580875 0.745416
vt 0.630432 0.745416
vt 0.610609 0.745416
vt 0.660166 0.745416
vt 0.640343 0.745416
vt 0.689900 0.745416
vt 0.670077 0.745416
vt 0.719635 0.745416
vt 0.699812 0.745416
vt 0.749369 0.745416
vt 0.729546 0.745416
vt 0.859052 0.722974
vt 0.822425 0.722974
vt 0.822425 0.759601
vt 0.859052 0.759601
vn 0.3162 -0.9487 0.0000
vn -1.0000 0.0000 0.0000
vn -0.3162 -0.9487 0.0000
vn 1.0000 0.0000 0.0000
vn 0.0000 0.8575 0.5145
vn -0.7071 0.0000 0.7071
vn 0.5145 0.8575 0.0000
vn 0.7071 0.0000 -0.7071
vn 0.7071 0.0000 0.7071
vn 0.0000 0.8575 -0.5145
vn -0.7071 0.0000 -0.7071
vn -0.5145 0.8575 0.0000
vn 0.0000 -0.9487 -0.3162
vn 0.0000 -0.9487 0.3162
vn 0.0000 0.0000 -1.0000
vn 0.3827 0.0000 0.9239
vn 0.0000 -1.0000 0.0000
vn 0.0000 0.0000 1.0000
vn 0.0000 -0.9992 -0.0400
vn -0.8944 -0.4472 0.0000
vn 0.1414 -0.9899 0.0000
vn 0.0000 1.0000 0.0000
vn -0.9962 0.0866 0.0000
vn 0.9981 -0.0624 0.0000
vn -0.9821 -0.1732 -0.0744
vn 0.3714 0.9285 0.0000
vn -0.9487 -0.3162 0.0000
vn 0.9487 0.3162 0.0000
vn -0.4961 -0.8682 0.0000
vn -0.9844 -0.1406 -0.1062
vn 0.9848 0.1736 0.0000
vn 0.1736 -0.9848 0.0000
vn -0.1736 0.9848 -0.0000
vn -0.9844 -0.1406 0.1062
vn -0.9821 -0.1732 0.0744
vn -0.9955 -0.0948 -0.0000
vn -0.9289 -0.3703 0.0000
vn -0.0526 -0.9986 0.0000
vn 0.0000 -0.9992 0.0400
vn -0.3827 0.0000 -0.9239
vn -0.3827 0.0000 0.9239
vn 0.3827 0.0000 -0.9239
vn 0.9239 0.0000 -0.3827
vn -0.9239 0.0000 0.3827
vn 0.9239 0.0000 0.3827
vn -0.9239 0.0000 -0.3827
vn -0.1292 0.9413 -0.3119
vn -0.3119 0.9413 -0.1292
vn -0.3119 0.9413 0.1292
vn -0.1292 0.9413 0.3119
vn 0.1292 0.9413 0.3119
vn 0.3119 0.9413 0.1292
vn 0.3119 0.9413 -0.1292
vn 0.1292 0.9413 -0.3119
usemtl Material
s off
f 23/1/1 12/2/1 20/3/1 22/4/1
f 21/5/2 39/6/2 38/7/2 1/8/2
f 26/9/3 24/10/3 20/11/3 12/12/3
f 5/13/4 42/14/4 44/15/4 25/16/4
f 5/17/5 91/18/5 92/19/5 24/20/5
f 20/11/6 24/10/6 92/21/6
f 91/18/7 5/22/7 25/23/7 90/24/7
f 19/25/8 90/26/8 25/27/8
f 19/28/9 27/29/9 90/30/9
f 7/31/7 89/32/7 90/24/7 27/33/7
f 89/32/10 7/34/10 28/35/10 88/36/10
f 18/37/11 88/38/11 28/39/11
f 88/40/8 18/41/8 9/42/8
f 87/43/10 88/36/10 9/44/10 3/45/10
f 87/43/12 3/46/12 10/47/12 86/48/12
f 86/49/6 10/50/6 17/51/6
f 17/52/11 21/53/11 86/54/11
f 1/55/12 93/56/12 86/48/12 21/57/12
f 1/58/5 22/59/5 92/19/5 93/56/5
f 20/3/9 92/60/9 22/4/9
f 26/9/13 12/12/13 19/25/13 25/27/13
f 29/61/14 27/29/14 19/28/14 12/62/14
f 29/61/3 12/62/3 18/37/3 28/39/3
f 11/63/1 9/42/1 18/41/1 12/64/1
f 10/50/14 11/63/14 12/64/14 17/51/14
f 17/52/13 12/2/13 23/1/13 21/53/13
f 3/65/2 34/66/2 36/67/2 10/68/2
f 7/69/15 30/70/15 32/71/15 28/72/15
f 16/73/16 6/74/16 96/75/16 101/76/16
f 31/77/17 33/78/17 32/71/17 30/70/17
f 28/79/2 32/71/2 33/78/2 29/80/2
f 29/81/18 33/78/18 31/77/18 27/82/18
f 27/83/4 31/77/4 30/70/4 7/84/4
f 35/85/17 37/86/17 36/67/17 34/66/17
f 11/87/4 37/86/4 35/85/4 9/88/4
f 10/89/18 36/67/18 37/86/18 11/90/18
f 9/91/15 35/85/15 34/66/15 3/92/15
f 38/7/17 39/6/17 41/93/17 40/94/17
f 23/95/15 41/93/15 39/6/15 21/96/15
f 22/97/4 40/94/4 41/93/4 23/98/4
f 1/99/18 38/7/18 40/94/18 22/100/18
f 43/101/17 45/102/17 44/15/17 42/14/17
f 25/103/15 44/15/15 45/102/15 26/104/15
f 26/105/2 45/102/2 43/101/2 24/106/2
f 24/107/18 43/101/18 42/14/18 5/108/18
f 47/109/2 76/110/2 74/111/2 103/112/2
f 102/113/15 49/114/15 53/115/15 104/116/15
f 104/116/4 53/117/4 51/118/4 105/119/4
f 105/119/18 51/120/18 47/121/18 103/112/18
f 51/122/19 58/123/19 54/124/19 47/125/19
f 54/126/20 55/127/20 57/128/20 56/129/20
f 56/130/15 57/128/15 61/131/15 60/132/15
f 60/133/4 61/131/4 59/134/4 58/123/4
f 58/135/18 59/134/18 55/127/18 54/136/18
f 47/125/21 54/124/21 56/137/21 49/138/21
f 61/131/22 57/128/22 55/127/22 59/134/22
f 62/139/23 63/140/23 65/141/23 64/142/23
f 64/142/15 65/141/15 69/143/15 68/144/15
f 68/145/24 69/146/24 67/147/24 66/148/24
f 66/148/18 67/147/18 63/140/18 62/139/18
f 66/149/18 62/139/18 70/150/18 72/151/18
f 80/152/25 65/153/25 81/154/25
f 73/155/26 72/156/26 76/157/26 77/158/26
f 64/142/15 68/159/15 73/160/15 71/161/15
f 62/139/27 64/142/27 71/161/27 70/150/27
f 68/162/28 66/149/28 72/151/28 73/163/28
f 49/164/2 77/165/2 76/110/2 47/109/2
f 70/150/29 71/161/29 75/166/29 74/167/29
f 72/156/18 70/150/18 74/167/18 76/157/18
f 71/161/15 73/168/15 77/169/15 75/166/15
f 69/170/30 65/171/30 80/172/30
f 80/152/15 81/154/15 85/173/15 84/174/15
f 84/174/31 85/173/31 83/175/31 82/176/31
f 82/176/18 83/175/18 79/177/18 78/178/18
f 80/172/32 84/174/32 82/176/32 78/179/32
f 85/173/33 81/180/33 79/181/33 83/175/33
f 67/182/34 78/179/34 63/183/34
f 79/177/35 63/184/35 78/178/35
f 65/185/36 63/186/36 79/181/36 81/180/36
f 67/182/37 69/170/37 80/172/37 78/179/37
f 103/112/2 74/111/2 75/187/2 102/113/2
f 102/113/2 75/187/2 77/165/2 49/164/2
f 53/188/38 60/133/38 58/123/38 51/122/38
f 49/138/39 56/137/39 60/133/39 53/188/39
f 13/189/22 4/190/22 87/43/22 86/48/22
f 14/191/22 8/192/22 89/32/22 88/36/22
f 15/193/22 6/194/22 91/18/22 90/24/22
f 16/195/22 2/196/22 93/56/22 92/19/22
f 2/196/22 13/189/22 86/48/22 93/56/22
f 4/190/22 14/191/22 88/36/22 87/43/22
f 8/192/22 15/193/22 90/24/22 89/32/22
f 6/194/22 16/195/22 92/19/22 91/18/22
f 14/197/40 4/198/40 95/199/40 99/200/40
f 2/201/41 16/73/41 101/76/41 94/202/41
f 8/203/42 14/204/42 99/205/42 97/206/42
f 15/207/43 8/203/43 97/206/43 100/208/43
f 13/209/44 2/201/44 94/202/44 98/210/44
f 6/74/45 15/207/45 100/208/45 96/75/45
f 4/198/46 13/209/46 98/210/46 95/199/46
f 103/112/17 109/211/17 105/119/17
f 102/113/17 106/212/17 103/112/17
f 107/213/17 102/113/17 104/116/17
f 108/214/17 104/116/17 105/119/17
f 106/215/46 48/216/46 111/217/46 114/218/46
f 52/219/43 108/220/43 116/221/43 113/222/43
f 109/223/41 46/224/41 110/225/41 117/226/41
f 46/224/44 106/215/44 114/218/44 110/225/44
f 107/227/42 52/219/42 113/222/42 115/228/42
f 50/229/16 109/223/16 117/226/16 112/230/16
f 48/216/40 107/231/40 115/232/40 111/217/40
f 108/220/45 50/229/45 112/230/45 116/221/45
f 95/199/47 111/217/47 115/232/47 99/200/47
f 98/210/48 114/233/48 111/234/48 95/199/48
f 94/202/49 110/235/49 114/236/49 98/210/49
f 101/76/50 117/237/50 110/238/50 94/202/50
f 96/75/51 112/239/51 117/240/51 101/76/51
f 100/208/52 116/241/52 112/242/52 96/75/52
f 97/206/53 113/243/53 116/244/53 100/208/53
f 99/205/54 115/245/54 113/246/54 97/206/54
f 109/211/17 50/247/17 105/119/17
f 50/247/17 108/214/17 105/119/17
f 52/248/17 104/116/17 108/214/17
f 52/248/17 107/213/17 104/116/17
f 48/249/17 102/113/17 107/213/17
f 102/113/17 48/249/17 106/212/17
f 106/212/17 46/250/17 103/112/17
f 103/112/17 46/250/17 109/211/17
