# Blender v2.79 (sub 0) OBJ File: 'computer.blend'
# www.blender.org
o Cube
v 0.180000 -0.000000 0.050000
v -0.180000 -0.000000 0.050000
v 0.060000 0.079270 0.044647
v -0.160000 0.079270 0.044647
v 0.180000 0.000000 -0.200000
v -0.180000 0.000000 -0.200000
v 0.180000 0.060000 -0.200000
v -0.180000 0.060000 -0.200000
v 0.060000 0.220730 0.005353
v -0.160000 0.220730 0.005353
v 0.180000 0.060000 0.050000
v -0.180000 0.060000 0.050000
v 0.050107 0.082919 0.025887
v -0.150107 0.082919 0.025887
v 0.050107 0.207497 -0.007033
v -0.150107 0.207497 -0.007033
v -0.015910 0.082771 0.030396
v -0.084090 0.082771 0.030396
v -0.015910 0.210041 -0.003236
v -0.084090 0.210041 -0.003236
v 0.054583 0.125923 0.021041
v 0.054583 0.168487 0.009793
v -0.154583 0.168487 0.009793
v -0.154583 0.125923 0.021041
v -0.083369 0.127640 0.025056
v -0.083369 0.169166 0.014083
v -0.016631 0.127640 0.025056
v -0.016631 0.169166 0.014083
v 0.180000 0.010000 0.190000
v 0.180000 -0.000000 0.180000
v 0.180000 0.002929 0.187071
v -0.180000 -0.000000 0.180000
v -0.180000 0.010000 0.190000
v -0.180000 0.002929 0.187071
v 0.180000 0.032095 0.180222
v 0.180000 0.020000 0.190000
v 0.180000 0.027685 0.187136
v -0.180000 0.020000 0.190000
v -0.180000 0.032095 0.180222
v -0.180000 0.027685 0.187136
v 0.170000 0.200000 -0.200000
v 0.180000 0.189802 -0.200000
v 0.177071 0.197013 -0.200000
v -0.180000 0.189802 -0.200000
v -0.170000 0.200000 -0.200000
v -0.177071 0.197013 -0.200000
v 0.180000 0.230339 0.002684
v 0.170000 0.240000 0.000000
v 0.177071 0.237170 0.000786
v -0.170000 0.240000 0.000000
v -0.180000 0.230339 0.002684
v -0.177071 0.237170 0.000786
v 0.161338 0.240000 0.000000
v 0.161338 0.200000 -0.200000
v -0.160649 0.200000 -0.200000
v -0.160649 0.240000 0.000000
v 0.180000 0.215416 0.006829
v 0.180000 0.178431 -0.200000
v -0.180000 0.178425 -0.200000
v -0.180000 0.215409 0.006831
v 0.180000 0.034367 0.169623
v -0.180000 0.034367 0.169623
v 0.010524 0.054380 0.076225
v -0.088309 0.054380 0.076225
v 0.010524 0.039986 0.143398
v -0.088309 0.039986 0.143398
v 0.057735 0.054380 0.076225
v -0.135520 0.054380 0.076225
v 0.057735 0.039986 0.143398
v -0.135520 0.039986 0.143398
v 0.010524 0.038007 0.152695
v -0.088309 0.038007 0.152695
v 0.081965 0.054380 0.076226
v 0.081965 0.039986 0.143398
v 0.129176 0.054380 0.076226
v 0.129176 0.039986 0.143398
v 0.010524 0.057081 0.078941
v -0.088309 0.057081 0.078941
v -0.133431 0.043562 0.142028
v -0.133431 0.057081 0.078941
v 0.055646 0.057081 0.078941
v 0.055646 0.043562 0.142028
v 0.008435 0.043563 0.142026
v -0.086220 0.043563 0.142025
v -0.086220 0.041581 0.151320
v 0.008435 0.041581 0.151320
v 0.084054 0.057081 0.078941
v 0.084054 0.043562 0.142028
v 0.127087 0.057081 0.078941
v 0.127087 0.043562 0.142028
v 0.162857 0.109687 0.036198
v 0.078998 0.211781 0.003696
v 0.077532 0.109687 0.036198
v 0.162857 0.155335 0.023518
v 0.078998 0.167701 0.015940
v 0.161391 0.167701 0.015940
v 0.077532 0.155335 0.023518
v 0.161391 0.211781 0.003696
v 0.162857 0.213633 0.007324
v 0.162857 0.167986 0.020004
v 0.078743 0.153619 0.019852
v 0.077532 0.167986 0.020004
v 0.161646 0.153619 0.019852
v 0.077532 0.213633 0.007324
v 0.161646 0.109266 0.032172
v 0.078743 0.109266 0.032172
v 0.180000 0.060000 0.050000
v 0.180000 0.060000 0.050000
v -0.180000 0.060000 0.050000
v -0.180000 0.060000 0.050000
v 0.180000 0.000000 -0.200000
v 0.180000 0.060000 -0.200000
v -0.180000 0.000000 -0.200000
v -0.180000 0.060000 -0.200000
v 0.060000 0.079270 0.044647
v 0.060000 0.079270 0.044647
v -0.160000 0.079270 0.044647
v -0.160000 0.079270 0.044647
v 0.060000 0.220730 0.005353
v 0.060000 0.220730 0.005353
v -0.160000 0.220730 0.005353
v -0.160000 0.220730 0.005353
v -0.084090 0.082771 0.030396
v -0.150107 0.082919 0.025887
v -0.150107 0.082919 0.025887
v -0.084090 0.210041 -0.003236
v -0.150107 0.207497 -0.007033
v -0.150107 0.207497 -0.007033
v 0.054583 0.168487 0.009793
v 0.050107 0.207497 -0.007033
v 0.050107 0.207497 -0.007033
v -0.154583 0.125923 0.021041
v 0.050107 0.082919 0.025887
v 0.050107 0.082919 0.025887
v -0.015910 0.082771 0.030396
v -0.015910 0.210041 -0.003236
v 0.054583 0.125923 0.021041
v -0.154583 0.168487 0.009793
v 0.180000 0.230339 0.002684
v 0.177071 0.237170 0.000786
v 0.170000 0.240000 0.000000
v -0.170000 0.240000 0.000000
v -0.177071 0.237170 0.000786
v -0.177071 0.237170 0.000786
v -0.180000 0.230339 0.002684
v 0.180000 0.002929 0.187071
v 0.180000 0.010000 0.190000
v -0.180000 0.010000 0.190000
v -0.180000 0.002929 0.187071
v 0.180000 -0.000000 0.180000
v -0.180000 -0.000000 0.180000
v 0.180000 0.027685 0.187136
v 0.180000 0.032095 0.180222
v -0.180000 0.032095 0.180222
v -0.180000 0.027685 0.187136
v 0.180000 0.020000 0.190000
v -0.180000 0.020000 0.190000
v 0.177071 0.197013 -0.200000
v 0.170000 0.200000 -0.200000
v 0.180000 0.189802 -0.200000
v -0.177071 0.197013 -0.200000
v -0.177071 0.197013 -0.200000
v -0.180000 0.189802 -0.200000
v -0.170000 0.200000 -0.200000
v 0.180000 0.034367 0.169623
v -0.180000 0.034367 0.169623
v 0.161338 0.240000 0.000000
v -0.160649 0.200000 -0.200000
v 0.180000 0.215416 0.006829
v 0.180000 0.178431 -0.200000
v -0.180000 0.178425 -0.200000
v -0.180000 0.215409 0.006831
v -0.160649 0.240000 0.000000
v 0.161338 0.200000 -0.200000
v 0.010524 0.057081 0.078941
v -0.088309 0.057081 0.078941
v -0.133431 0.043562 0.142028
v -0.133431 0.043562 0.142028
v -0.133431 0.057081 0.078941
v -0.133431 0.057081 0.078941
v 0.055646 0.057081 0.078941
v 0.055646 0.057081 0.078941
v 0.055646 0.043562 0.142028
v 0.055646 0.043562 0.142028
v 0.008435 0.043563 0.142026
v 0.008435 0.043563 0.142026
v -0.086220 0.043563 0.142025
v -0.086220 0.043563 0.142025
v -0.086220 0.041581 0.151320
v -0.086220 0.041581 0.151320
v 0.008435 0.041581 0.151320
v 0.008435 0.041581 0.151320
v 0.084054 0.057081 0.078941
v 0.084054 0.057081 0.078941
v 0.084054 0.043562 0.142028
v 0.084054 0.043562 0.142028
v 0.127087 0.057081 0.078941
v 0.127087 0.057081 0.078941
v 0.127087 0.043562 0.142028
v 0.127087 0.043562 0.142028
v -0.135520 0.039986 0.143398
v -0.135520 0.054380 0.076225
v 0.057735 0.054380 0.076225
v 0.057735 0.039986 0.143398
v 0.010524 0.039986 0.143398
v -0.088309 0.039986 0.143398
v 0.010524 0.038007 0.152695
v -0.088309 0.038007 0.152695
v 0.081965 0.039986 0.143398
v 0.081965 0.054380 0.076226
v 0.129176 0.054380 0.076226
v 0.129176 0.039986 0.143398
v 0.162857 0.213633 0.007324
v 0.162857 0.213633 0.007324
v 0.161391 0.211781 0.003696
v 0.161391 0.211781 0.003696
v 0.162857 0.167986 0.020004
v 0.162857 0.167986 0.020004
v 0.161391 0.167701 0.015940
v 0.161391 0.167701 0.015940
v 0.078743 0.153619 0.019852
v 0.078743 0.153619 0.019852
v 0.077532 0.155335 0.023518
v 0.077532 0.155335 0.023518
v 0.077532 0.109687 0.036198
v 0.077532 0.109687 0.036198
v 0.078743 0.109266 0.032172
v 0.078743 0.109266 0.032172
v 0.078998 0.211781 0.003696
v 0.078998 0.211781 0.003696
v 0.077532 0.213633 0.007324
v 0.077532 0.213633 0.007324
v 0.162857 0.109687 0.036198
v 0.162857 0.109687 0.036198
v 0.077532 0.167986 0.020004
v 0.077532 0.167986 0.020004
v 0.078998 0.167701 0.015940
v 0.078998 0.167701 0.015940
v 0.162857 0.155335 0.023518
v 0.162857 0.155335 0.023518
v 0.161646 0.109266 0.032172
v 0.161646 0.109266 0.032172
v 0.161646 0.153619 0.019852
v 0.161646 0.153619 0.019852
vt 0.417270 0.469139
vt 0.417269 0.480488
vt 0.008712 0.480489
vt 0.008712 0.469139
vt 0.322258 0.276622
vt 0.312715 0.276622
vt 0.312715 0.051924
vt 0.322258 0.051924
vt 0.991288 0.419218
vt 0.989652 0.427490
vt 0.982646 0.432181
vt 0.971843 0.434342
vt 0.962923 0.432909
vt 0.956664 0.426392
vt 0.951921 0.415433
vt 0.898384 0.291745
vt 0.963201 0.278782
vt 0.417273 0.511394
vt 0.010261 0.512579
vt 0.009468 0.499713
vt 0.417270 0.499099
vt 0.101616 0.291746
vt 0.036799 0.278783
vt 0.090813 0.008713
vt 0.155629 0.021676
vt 0.501386 0.848369
vt 0.435285 0.848369
vt 0.435286 0.451767
vt 0.501386 0.451767
vt 0.716437 0.047262
vt 0.721171 0.278688
vt 0.704147 0.277434
vt 0.704146 0.049720
vt 0.844369 0.021675
vt 0.909186 0.008712
vt 0.278836 0.278687
vt 0.283568 0.047264
vt 0.295852 0.049720
vt 0.295852 0.277434
vt 0.035076 0.673815
vt 0.051538 0.689025
vt 0.045701 0.733437
vt 0.282051 0.840077
vt 0.405392 0.863310
vt 0.395471 0.862900
vt 0.631852 0.451767
vt 0.644385 0.451767
vt 0.652329 0.454994
vt 0.655620 0.462784
vt 0.655620 0.473085
vt 0.655620 0.827802
vt 0.655620 0.837352
vt 0.652329 0.845142
vt 0.644385 0.848369
vt 0.631858 0.848369
vt 0.282020 0.672946
vt 0.035076 0.673815
vt 0.011638 0.651217
vt 0.417630 0.649736
vt 0.302454 0.777732
vt 0.302100 0.831986
vt 0.036866 0.840571
vt 0.014449 0.851959
vt 0.014213 0.834570
vt 0.036866 0.840571
vt 0.052226 0.825443
vt 0.121650 0.827342
vt 0.282051 0.840077
vt 0.266091 0.824422
vt 0.273521 0.780739
vt 0.282020 0.672946
vt 0.265421 0.688610
vt 0.195818 0.686579
vt 0.282020 0.672946
vt 0.273632 0.732271
vt 0.265421 0.688610
vt 0.035076 0.673815
vt 0.121358 0.686978
vt 0.051538 0.689025
vt 0.036866 0.840571
vt 0.046297 0.781703
vt 0.052226 0.825443
vt 0.282051 0.840077
vt 0.196301 0.826950
vt 0.266091 0.824422
vt 0.824987 0.548747
vt 0.903568 0.549324
vt 0.898953 0.596242
vt 0.825930 0.597640
vt 0.673044 0.549328
vt 0.751626 0.548749
vt 0.750684 0.597643
vt 0.677661 0.596246
vt 0.677663 0.452955
vt 0.750684 0.451769
vt 0.751625 0.501535
vt 0.673044 0.500744
vt 0.825927 0.451767
vt 0.824986 0.501532
vt 0.898947 0.452950
vt 0.903568 0.500740
vt 0.417127 0.852738
vt 0.413558 0.860395
vt 0.025742 0.862948
vt 0.017818 0.859798
vt 0.008712 0.460453
vt 0.417270 0.460454
vt 0.008712 0.451767
vt 0.417270 0.451767
vt 0.008712 0.489796
vt 0.417270 0.489794
vt 0.304284 0.276860
vt 0.304284 0.051278
vt 0.695715 0.276860
vt 0.695715 0.051278
vt 0.695715 0.051278
vt 0.695715 0.276860
vt 0.687284 0.276622
vt 0.687283 0.051924
vt 0.048079 0.415434
vt 0.043336 0.426393
vt 0.037077 0.432909
vt 0.028157 0.434343
vt 0.017354 0.432182
vt 0.010348 0.427491
vt 0.008712 0.419219
vt 0.676982 0.276622
vt 0.676982 0.051924
vt 0.417630 0.649736
vt 0.011638 0.651217
vt 0.835855 0.700869
vt 0.726974 0.700832
vt 0.729299 0.629756
vt 0.833578 0.629792
vt 0.885589 0.629807
vt 0.885565 0.700886
vt 0.677264 0.700815
vt 0.677288 0.629736
vt 0.729303 0.619286
vt 0.833582 0.619322
vt 0.963069 0.628976
vt 0.963069 0.700055
vt 0.915661 0.700055
vt 0.915661 0.628976
vt 0.726974 0.700832
vt 0.835855 0.700869
vt 0.835854 0.705088
vt 0.726972 0.705051
vt 0.677288 0.629736
vt 0.677264 0.700815
vt 0.673044 0.703115
vt 0.673070 0.627433
vt 0.885565 0.700886
vt 0.885589 0.629807
vt 0.889809 0.627508
vt 0.889783 0.703189
vt 0.885565 0.700886
vt 0.887865 0.705106
vt 0.885589 0.629807
vt 0.833578 0.629792
vt 0.835881 0.625572
vt 0.887892 0.625589
vt 0.729299 0.629756
vt 0.677288 0.629736
vt 0.674988 0.625516
vt 0.726999 0.625535
vt 0.677264 0.700815
vt 0.674961 0.705033
vt 0.833582 0.619322
vt 0.729303 0.619286
vt 0.727003 0.615067
vt 0.835884 0.615104
vt 0.729303 0.619286
vt 0.729299 0.629756
vt 0.725079 0.627455
vt 0.725085 0.616983
vt 0.833578 0.629792
vt 0.833582 0.619322
vt 0.837801 0.617021
vt 0.837800 0.627493
vt 0.963069 0.700055
vt 0.963069 0.628976
vt 0.967288 0.626675
vt 0.967288 0.702356
vt 0.915661 0.628976
vt 0.915661 0.700055
vt 0.911442 0.702357
vt 0.911442 0.626675
vt 0.963069 0.628976
vt 0.915661 0.628976
vt 0.913359 0.624757
vt 0.965371 0.624757
vt 0.915661 0.700055
vt 0.963069 0.700055
vt 0.965371 0.704274
vt 0.913359 0.704274
vt 0.397958 0.832964
vt 0.302100 0.831986
vt 0.305378 0.829464
vt 0.394620 0.830224
vt 0.397968 0.778244
vt 0.397958 0.832964
vt 0.394620 0.830224
vt 0.394771 0.780892
vt 0.302188 0.708664
vt 0.398129 0.708546
vt 0.395008 0.711127
vt 0.305328 0.711147
vt 0.302454 0.777732
vt 0.397968 0.778244
vt 0.394771 0.780892
vt 0.305696 0.780357
vt 0.397970 0.763308
vt 0.302386 0.762910
vt 0.305408 0.760456
vt 0.394915 0.760687
vt 0.302386 0.762910
vt 0.302188 0.708664
vt 0.305328 0.711147
vt 0.305408 0.760456
vt 0.394771 0.780892
vt 0.394620 0.830224
vt 0.305378 0.829464
vt 0.305696 0.780357
vt 0.305408 0.760456
vt 0.305328 0.711147
vt 0.395008 0.711127
vt 0.394915 0.760687
vt 0.417861 0.835391
vt 0.397970 0.763308
vt 0.398129 0.708546
vt 0.302188 0.708664
vt 0.397958 0.832964
vt 0.302386 0.762910
vt 0.397968 0.778244
vt 0.302100 0.831986
vt 0.302454 0.777732
vt 0.305696 0.780357
vt 0.305378 0.829464
vt 0.398129 0.708546
vt 0.397970 0.763308
vt 0.394915 0.760687
vt 0.395008 0.711127
vt 0.036123 0.862828
vn 0.0000 -0.1951 0.9808
vn 0.0000 0.1774 0.9841
vn 0.0000 0.9806 -0.1961
vn 0.1968 0.9614 -0.1923
vn 0.1997 0.9608 -0.1921
vn -1.0000 0.0000 0.0000
vn 0.0000 0.9778 0.2095
vn 0.0000 0.9251 0.3797
vn 1.0000 0.0000 0.0000
vn 0.0000 0.0000 -1.0000
vn -0.9825 0.1827 -0.0365
vn -0.9852 0.1682 -0.0336
vn 0.9852 0.1682 -0.0336
vn 0.9825 0.1827 -0.0365
vn 0.8665 0.1409 0.4789
vn 0.8634 0.1443 0.4834
vn 0.8770 0.1285 0.4629
vn 0.0000 0.2676 0.9635
vn -0.0126 -0.6791 0.7339
vn -0.0151 -0.6893 0.7243
vn -0.0011 -0.6313 0.7755
vn -0.8467 0.1309 0.5157
vn -0.8384 0.1319 0.5288
vn -0.8745 0.1270 0.4680
vn 0.0086 0.9808 0.1949
vn 0.0105 0.9825 0.1856
vn 0.0008 0.9721 0.2343
vn -0.8665 0.1409 0.4789
vn -0.8770 0.1285 0.4629
vn -0.8634 0.1443 0.4834
vn -0.0086 0.9808 0.1949
vn -0.0008 0.9721 0.2343
vn -0.0105 0.9825 0.1856
vn 0.8467 0.1309 0.5157
vn 0.8745 0.1270 0.4680
vn 0.8384 0.1319 0.5288
vn 0.0126 -0.6791 0.7339
vn 0.0011 -0.6313 0.7755
vn 0.0151 -0.6893 0.7243
vn 0.0308 0.3246 0.9453
vn 0.0620 0.3238 0.9441
vn 0.0633 0.3947 0.9166
vn 0.0318 0.3926 0.9191
vn -0.0620 0.3238 0.9441
vn -0.0308 0.3246 0.9453
vn -0.0318 0.3926 0.9191
vn -0.0633 0.3947 0.9166
vn -0.0629 0.1122 0.9917
vn -0.0316 0.1152 0.9928
vn -0.0307 0.1861 0.9820
vn -0.0618 0.1859 0.9806
vn 0.0316 0.1152 0.9928
vn 0.0307 0.1861 0.9820
vn 0.0629 0.1122 0.9917
vn 0.0618 0.1859 0.9806
vn 0.0000 -0.7071 0.7071
vn 0.0000 -0.9239 0.3827
vn 0.0000 0.6287 0.7776
vn 0.7159 0.6846 -0.1369
vn 0.7301 0.6701 -0.1340
vn -0.9239 0.3752 -0.0750
vn -0.3827 0.9059 -0.1812
vn -0.1968 0.9614 -0.1923
vn -0.1997 0.9608 -0.1921
vn 0.0000 0.9779 0.2092
vn 0.0000 0.9778 0.2092
vn 0.0000 0.9780 0.2085
vn 0.0000 0.7089 -0.7052
vn -0.8381 0.5333 0.1143
vn 0.8381 0.5333 0.1143
vn 0.0000 0.3579 0.9337
vn 0.0000 0.3590 0.9333
vn -0.8382 0.5333 0.1136
vn 0.8382 0.5333 0.1136
vn 0.0000 0.3577 0.9338
vn 0.0000 -0.8906 0.4547
vn -0.9387 0.0922 0.3321
vn 0.0000 0.9946 -0.1039
vn 0.0000 0.9976 -0.0698
vn 0.0000 -0.9057 0.4239
vn 0.9569 0.0777 0.2796
vn 0.9387 0.0922 0.3321
vn -0.9569 0.0777 0.2796
s 1
f 147/1/1 156/2/2 38/3/2 148/4/1
f 167/5/3 48/6/4 41/7/5 174/8/3
f 151/9/6 149/10/6 33/11/6 157/12/6 155/13/6 39/14/6 166/15/6 109/16/6 2/17/6
f 165/18/7 62/19/7 154/20/8 153/21/8
f 107/22/9 1/23/9 5/24/9 112/25/9
f 7/26/10 111/27/10 113/28/10 114/29/10
f 171/30/6 172/31/6 51/32/11 44/33/12
f 2/17/6 109/16/6 8/34/6 6/35/6
f 169/36/9 170/37/9 42/38/13 47/39/14
f 118/40/15 125/41/16 132/42/17
f 9/43/18 141/44/18 53/45/18
f 7/26/10 114/29/10 59/46/10 163/47/10 161/48/10 164/49/10 168/50/10 54/51/10 159/52/10 158/53/10 160/54/10 58/55/10
f 115/56/18 117/57/18 110/58/18 108/59/18
f 9/43/18 236/60/18 232/61/18
f 117/57/18 122/62/18 145/63/18 60/64/18 110/58/18
f 121/65/19 127/66/20 126/67/21
f 120/68/22 130/69/23 129/70/24
f 3/71/25 133/72/26 135/73/27
f 116/74/28 120/68/22 129/70/24 137/75/29
f 134/76/30 116/74/28 137/75/29
f 4/77/31 3/71/25 135/73/27 123/78/32
f 124/79/33 4/77/31 123/78/32
f 10/80/34 118/40/15 132/42/17 138/81/35
f 128/82/36 10/80/34 138/81/35
f 119/83/37 121/65/19 126/67/21 136/84/38
f 131/85/39 119/83/37 136/84/38
f 28/86/40 22/87/41 15/88/42 19/89/43
f 23/90/44 26/91/45 20/92/46 16/93/47
f 26/91/45 28/86/40 19/89/43 20/92/46
f 14/94/48 18/95/49 25/96/50 24/97/51
f 24/97/51 25/96/50 26/91/45 23/90/44
f 18/95/49 17/98/52 27/99/53 25/96/50
f 25/96/50 27/99/53 28/86/40 26/91/45
f 17/98/52 13/100/54 21/101/55 27/99/53
f 27/99/53 21/101/55 22/87/41 28/86/40
f 139/102/18 140/103/18 9/43/18
f 140/103/18 141/44/18 9/43/18
f 142/104/18 143/105/18 122/62/18
f 143/105/18 145/63/18 122/62/18
f 147/1/1 148/4/1 34/106/56 146/107/56
f 146/107/56 34/106/56 32/108/57 150/109/57
f 153/21/8 154/20/8 40/110/58 152/111/58
f 152/111/58 40/110/58 38/3/2 156/2/2
f 41/7/5 48/6/4 49/112/59 43/113/60
f 43/113/60 49/112/59 47/39/14 42/38/13
f 44/33/12 51/32/11 144/114/61 162/115/61
f 46/116/62 52/117/62 50/118/63 45/119/64
f 1/23/9 107/22/9 61/120/9 35/121/9 37/122/9 36/123/9 29/124/9 31/125/9 30/126/9
f 56/127/3 167/5/3 174/8/3 55/128/3
f 50/118/63 56/127/3 55/128/3 45/119/64
f 107/22/9 112/25/9 170/37/9 169/36/9
f 8/34/6 109/16/6 172/31/6 171/30/6
f 11/129/7 12/130/7 62/19/7 165/18/7
f 175/131/7 176/132/7 187/133/65 185/134/66
f 175/131/7 185/134/66 183/135/7 181/136/7
f 187/133/65 176/132/7 179/137/7 177/138/7
f 185/134/66 187/133/65 189/139/67 191/140/67
f 193/141/7 195/142/7 199/143/7 197/144/7
f 78/145/68 77/146/68 63/147/68 64/148/68
f 178/149/69 180/150/69 202/151/69 201/152/69
f 182/153/70 184/154/70 204/155/70 203/156/70
f 77/146/68 81/157/68 67/158/68 63/147/68
f 82/159/71 186/160/71 205/161/71 69/162/71
f 188/163/71 79/164/71 70/165/71 206/166/71
f 80/167/68 78/145/68 64/148/68 68/168/68
f 192/169/72 190/170/72 208/171/72 207/172/72
f 85/173/73 84/174/73 66/175/73 72/176/73
f 83/177/74 86/178/74 71/179/74 65/180/74
f 196/181/69 194/182/69 210/183/69 209/184/69
f 198/185/70 200/186/70 212/187/70 211/188/70
f 87/189/68 89/190/68 75/191/68 73/192/68
f 90/193/75 88/194/75 74/195/75 76/196/75
f 213/197/76 231/198/76 229/199/76 215/200/76
f 217/201/77 214/202/77 216/203/77 219/204/77
f 225/205/78 233/206/78 241/207/78 227/208/78
f 235/209/79 218/210/79 220/211/79 237/212/79
f 240/213/80 223/214/80 221/215/80 243/216/80
f 224/217/81 226/218/81 228/219/81 222/220/81
f 96/221/18 98/222/18 230/223/18 238/224/18
f 101/225/18 106/226/18 242/227/18 244/228/18
f 57/229/18 239/230/18 234/231/18 108/59/18
f 108/59/18 234/231/18 93/232/18 115/56/18
f 9/43/18 232/61/18 99/233/18 57/229/18 139/102/18
f 9/43/18 97/234/18 236/60/18
f 97/234/18 239/230/18 100/235/18 236/60/18
f 115/56/18 93/232/18 97/234/18 9/43/18
f 104/236/82 102/237/82 95/238/82 92/239/82
f 239/230/18 57/229/18 99/233/18 100/235/18
f 91/240/83 94/241/83 103/242/83 105/243/83
f 122/62/18 9/43/18 53/45/18 173/244/18
f 142/104/18 122/62/18 173/244/18
