# Blender v2.79 (sub 0) OBJ File: 'Cupboard.blend'
# www.blender.org
mtllib Cupboard.mtl
o Cube
v -0.200000 -0.002778 0.500000
v -0.200000 1.797222 0.500000
v -0.200000 -0.002778 -0.500000
v -0.200000 1.797222 -0.500000
v 0.200000 0.042222 0.475000
v 0.200000 1.752222 0.475000
v 0.200000 0.042222 -0.475000
v 0.200000 1.752222 -0.475000
v 0.200000 1.797222 -0.500000
v 0.200000 -0.002778 -0.500000
v 0.200000 -0.002778 0.500000
v 0.200000 1.797222 0.500000
v 0.200000 1.752222 0.000000
v 0.200000 0.042222 0.000000
v 0.220000 0.042222 -0.465000
v 0.220000 1.752222 -0.465000
v 0.220000 1.752222 -0.010000
v 0.220000 0.042222 -0.010000
v 0.220000 0.042222 0.465000
v 0.220000 1.752222 0.465000
v 0.220000 1.752222 0.010000
v 0.220000 0.042222 0.010000
v 0.220000 0.877222 0.010000
v 0.220000 0.877222 -0.010000
v 0.220000 0.877222 -0.465000
v 0.220000 1.752222 0.237500
v 0.220000 0.877222 0.465000
v 0.220000 0.886597 0.237500
v 0.220000 0.914722 0.010000
v 0.220000 0.914722 0.465000
v 0.220000 0.914722 -0.010000
v 0.220000 0.914722 -0.465000
v 0.220000 0.905347 0.237500
v 0.220000 0.905347 -0.237500
v 0.220000 0.886597 -0.237500
v 0.220000 0.886597 0.083750
v 0.220000 0.886597 -0.083750
v 0.220000 0.905347 0.083750
v 0.220000 0.905347 -0.083750
v 0.220000 0.905347 -0.220625
v 0.220000 0.905347 -0.102187
v 0.220000 0.886597 -0.220625
v 0.220000 0.886597 -0.102187
v 0.220000 0.905347 0.220625
v 0.220000 0.886597 0.220625
v 0.220000 0.886597 0.102187
v 0.220000 0.905347 0.102187
v 0.280000 0.886597 0.237500
v 0.280000 0.905347 0.237500
v 0.280000 0.905347 -0.237500
v 0.280000 0.886597 -0.237500
v 0.280000 0.886597 0.083750
v 0.280000 0.886597 -0.083750
v 0.280000 0.905347 0.083750
v 0.280000 0.905347 -0.083750
v 0.260000 0.905347 -0.220625
v 0.260000 0.905347 -0.102187
v 0.260000 0.886597 -0.220625
v 0.260000 0.886597 -0.102187
v 0.260000 0.905347 0.220625
v 0.260000 0.886597 0.220625
v 0.260000 0.886597 0.102187
v 0.260000 0.905347 0.102187
vt 0.485062 0.156644
vt 0.485067 0.759862
vt 0.149945 0.759865
vt 0.149941 0.156646
vt 0.015897 0.759866
vt 0.015892 0.156647
vt 0.646665 0.007514
vt 0.805847 0.007517
vt 0.802495 0.014220
vt 0.650016 0.014217
vt 0.619111 0.156643
vt 0.619115 0.759861
vt 0.149940 0.022598
vt 0.485061 0.022595
vt 0.149946 0.893913
vt 0.485068 0.893911
vt 0.007523 0.744794
vt 0.007514 0.171727
vt 0.158318 0.007517
vt 0.317497 0.007516
vt 0.476683 0.007514
vt 0.476690 0.908991
vt 0.317511 0.908993
vt 0.158325 0.908994
vt 0.627484 0.171714
vt 0.627493 0.744781
vt 0.642522 0.587273
vt 0.642522 0.014216
vt 0.650013 0.294039
vt 0.650012 0.306611
vt 0.650016 0.587274
vt 0.805848 0.593975
vt 0.646665 0.593977
vt 0.802497 0.587273
vt 0.809988 0.014221
vt 0.809989 0.587274
vt 0.802492 0.306603
vt 0.802493 0.294045
vt 0.992485 0.014220
vt 0.992486 0.587274
vt 0.984993 0.587273
vt 0.984990 0.306604
vt 0.984989 0.294045
vt 0.984992 0.014220
vt 0.801703 0.697709
vt 0.642522 0.697709
vt 0.645873 0.691007
vt 0.722111 0.691007
vt 0.798352 0.691007
vt 0.829162 0.007514
vt 0.988344 0.007517
vt 0.832513 0.014217
vt 0.825018 0.587273
vt 0.825019 0.014216
vt 0.832510 0.294039
vt 0.832510 0.306611
vt 0.832512 0.587274
vt 0.674730 0.303468
vt 0.680909 0.303467
vt 0.720599 0.303467
vt 0.726255 0.303466
vt 0.726254 0.297183
vt 0.720600 0.297183
vt 0.680909 0.297183
vt 0.674730 0.297183
vt 0.908751 0.303465
vt 0.914392 0.303465
vt 0.954092 0.303466
vt 0.960274 0.303466
vt 0.960273 0.297183
vt 0.954093 0.297183
vt 0.914398 0.297183
vt 0.908746 0.297184
vt 0.734261 0.669276
vt 0.734261 0.674931
vt 0.720856 0.674931
vt 0.714154 0.669276
vt 0.642522 0.621991
vt 0.642522 0.616336
vt 0.655927 0.616336
vt 0.662629 0.621991
vt 0.642522 0.628275
vt 0.662629 0.628275
vt 0.734261 0.615813
vt 0.734261 0.621992
vt 0.714154 0.621992
vt 0.720856 0.615813
vt 0.734261 0.662992
vt 0.714154 0.662992
vt 0.734261 0.628275
vt 0.734261 0.634454
vt 0.720856 0.634454
vt 0.714154 0.628275
vt 0.642522 0.662992
vt 0.642522 0.656813
vt 0.655927 0.656813
vt 0.662629 0.662992
vt 0.642522 0.650530
vt 0.655927 0.650530
vt 0.642522 0.675454
vt 0.642522 0.669276
vt 0.662629 0.669276
vt 0.655927 0.675454
vt 0.734261 0.651053
vt 0.734261 0.657337
vt 0.720856 0.657337
vt 0.720856 0.651053
vt 0.734261 0.609529
vt 0.720856 0.609529
vt 0.642522 0.610053
vt 0.655927 0.610053
vt 0.642522 0.633930
vt 0.655927 0.633930
vt 0.668284 0.634977
vt 0.707975 0.634977
vt 0.668284 0.615289
vt 0.707975 0.615289
vt 0.668808 0.656290
vt 0.708499 0.656290
vt 0.708499 0.675978
vt 0.668808 0.675978
vt 0.668808 0.650006
vt 0.708499 0.650006
vt 0.668284 0.609005
vt 0.707975 0.609006
vn -1.0000 0.0000 0.0000
vn 0.0000 0.0000 -1.0000
vn 0.0000 -1.0000 0.0000
vn 0.0000 0.0000 1.0000
vn 0.0000 1.0000 0.0000
vn 1.0000 0.0000 0.0000
vn 0.4472 0.0000 0.8944
vn 0.4472 0.0000 -0.8944
usemtl Material
s off
f 1/1/1 2/2/1 4/3/1 3/4/1
f 3/4/2 4/3/2 9/5/2 10/6/2
f 14/7/3 7/8/3 15/9/3 18/10/3
f 11/11/4 12/12/4 2/2/4 1/1/4
f 3/4/3 10/13/3 11/14/3 1/1/3
f 9/15/5 4/3/5 2/2/5 12/16/5
f 8/17/6 7/18/6 10/6/6 9/5/6
f 7/19/6 14/20/6 5/21/6 11/14/6 10/13/6
f 6/22/6 13/23/6 8/24/6 9/15/6 12/16/6
f 5/25/6 6/26/6 12/12/6 11/11/6
f 13/27/7 14/28/7 18/10/7 24/29/7 31/30/7 17/31/7
f 8/32/5 13/33/5 17/31/5 16/34/5
f 7/35/8 8/36/8 16/34/8 32/37/8 25/38/8 15/9/8
f 14/39/8 13/40/8 21/41/8 29/42/8 23/43/8 22/44/8
f 13/45/5 6/46/5 20/47/5 26/48/5 21/49/5
f 5/50/3 14/51/3 22/44/3 19/52/3
f 6/53/7 5/54/7 19/52/7 27/55/7 30/56/7 20/57/7
f 16/34/6 17/31/6 31/30/6 39/58/6 41/59/6 40/60/6 34/61/6 32/37/6
f 15/9/6 25/38/6 35/62/6 42/63/6 43/64/6 37/65/6 24/29/6 18/10/6
f 29/42/6 21/41/6 20/57/6 30/56/6 33/66/6 44/67/6 47/68/6 38/69/6
f 19/52/6 22/44/6 23/43/6 36/70/6 46/71/6 45/72/6 28/73/6 27/55/6
f 31/30/6 24/29/6 37/65/6 39/58/6
f 29/42/6 38/69/6 36/70/6 23/43/6
f 30/56/6 27/55/6 28/73/6 33/66/6
f 25/38/6 32/37/6 34/61/6 35/62/6
f 41/59/6 43/64/6 42/63/6 40/60/6
f 44/67/6 45/72/6 46/71/6 47/68/6
f 34/74/5 40/75/5 56/76/5 50/77/5
f 28/78/3 45/79/3 61/80/3 48/81/3
f 33/82/4 28/78/4 48/81/4 49/83/4
f 46/84/3 36/85/3 52/86/3 62/87/3
f 35/88/2 34/74/2 50/77/2 51/89/2
f 38/90/5 47/91/5 63/92/5 54/93/5
f 37/94/3 43/95/3 59/96/3 53/97/3
f 43/95/2 41/98/2 57/99/2 59/96/2
f 41/100/5 39/101/5 55/102/5 57/103/5
f 40/104/4 42/105/4 58/106/4 56/107/4
f 42/105/3 35/88/3 51/89/3 58/106/3
f 47/108/4 46/84/4 62/87/4 63/109/4
f 39/101/4 37/94/4 53/97/4 55/102/4
f 45/79/2 44/110/2 60/111/2 61/80/2
f 44/112/5 33/82/5 49/83/5 60/113/5
f 36/85/2 38/90/2 54/93/2 52/86/2
f 53/97/6 51/89/6 50/77/6 55/102/6
f 54/93/6 49/83/6 48/81/6 52/86/6
f 60/114/5 49/83/5 54/93/5 63/115/5
f 61/116/3 62/117/3 52/86/3 48/81/3
f 59/118/3 58/119/3 51/89/3 53/97/3
f 56/120/5 57/121/5 55/102/5 50/77/5
f 59/118/1 57/122/1 56/123/1 58/119/1
f 62/117/1 61/116/1 60/124/1 63/125/1
