# Blender v2.79 (sub 0) OBJ File: 'wall.blend'
# www.blender.org
mtllib wall.mtl
o Cube
v 0.100000 0.000000 -0.100000
v 0.100000 0.000000 0.100000
v -0.100000 0.000000 0.100000
v -0.100000 0.000000 -0.100000
v 0.100000 2.300000 -0.100000
v 0.100000 2.300000 0.100000
v -0.100000 2.300000 0.100000
v -0.100000 2.300000 -0.100000
v 0.100000 0.200000 -0.100000
v 0.100000 0.400000 -0.100000
v 0.100000 0.600000 -0.100000
v 0.100000 0.800000 -0.100000
v 0.100000 1.000000 -0.100000
v 0.100000 1.100000 -0.100000
v 0.100000 1.300000 -0.100000
v 0.100000 1.500000 -0.100000
v 0.100000 1.700000 -0.100000
v 0.100000 1.900000 -0.100000
v 0.100000 2.100000 -0.100000
v 0.100000 0.200000 0.100000
v 0.100000 0.400000 0.100000
v 0.100000 0.600000 0.100000
v 0.100000 0.800000 0.100000
v 0.100000 1.000000 0.100000
v 0.100000 1.100000 0.100000
v 0.100000 1.300000 0.100000
v 0.100000 1.500000 0.100000
v 0.100000 1.700000 0.100000
v 0.100000 1.900000 0.100000
v 0.100000 2.100000 0.100000
v -0.100000 0.200000 0.100000
v -0.100000 0.400000 0.100000
v -0.100000 0.600000 0.100000
v -0.100000 0.800000 0.100000
v -0.100000 1.000000 0.100000
v -0.100000 1.100000 0.100000
v -0.100000 1.300000 0.100000
v -0.100000 1.500000 0.100000
v -0.100000 1.700000 0.100000
v -0.100000 1.900000 0.100000
v -0.100000 2.100000 0.100000
v -0.100000 0.200000 -0.100000
v -0.100000 0.400000 -0.100000
v -0.100000 0.600000 -0.100000
v -0.100000 0.800000 -0.100000
v -0.100000 1.000000 -0.100000
v -0.100000 1.100000 -0.100000
v -0.100000 1.300000 -0.100000
v -0.100000 1.500000 -0.100000
v -0.100000 1.700000 -0.100000
v -0.100000 1.900000 -0.100000
v -0.100000 2.100000 -0.100000
vt 0.868913 0.453874
vt 0.625228 0.453874
vt 0.625228 0.210189
vt 0.868913 0.210189
vt 0.984357 0.984845
vt 0.493183 0.984845
vt 0.493183 0.493671
vt 0.984356 0.493671
vt 0.984356 0.493671
vt 0.493183 0.984845
vt 0.493183 0.493671
vt 0.984356 0.493671
vt 0.984356 0.984845
vt 0.493183 0.984845
vt 0.493183 0.493671
vt 0.984356 0.493671
vt 0.984356 0.984845
vt 0.493183 0.493671
vt 0.510442 0.466120
vt 0.510442 0.006536
vt 0.970026 0.006536
vt 0.970026 0.466120
vt 0.493183 0.984845
vt 0.493183 0.493671
vt 0.984356 0.493671
vt 0.984356 0.984845
vt 0.493183 0.984845
vt 0.493183 0.493671
vt 0.984356 0.493671
vt 0.984356 0.984845
vt 0.493183 0.984845
vt 0.493183 0.493671
vt 0.984356 0.493671
vt 0.984356 0.984845
vt 0.493183 0.984845
vt 0.493183 0.493671
vt 0.984356 0.493671
vt 0.984356 0.984845
vt 0.493183 0.984845
vt 0.493183 0.493671
vt 0.984356 0.493671
vt 0.984356 0.984845
vt 0.493183 0.984845
vt 0.493183 0.493671
vt 0.984356 0.493671
vt 0.984356 0.984845
vt 0.024728 0.572576
vt 0.024728 0.361018
vt 0.447928 0.361018
vt 0.447928 0.572576
vt 0.510442 0.466120
vt 0.510442 0.006536
vt 0.970026 0.006536
vt 0.970026 0.466120
vt 0.510442 0.465962
vt 0.510601 0.006536
vt 0.970026 0.006695
vt 0.969868 0.466120
vt 0.510442 0.466120
vt 0.510442 0.006536
vt 0.970026 0.006536
vt 0.970026 0.466120
vt 0.510442 0.466120
vt 0.510442 0.006536
vt 0.970026 0.006536
vt 0.970026 0.466120
vt 0.970026 0.006536
vt 0.970026 0.466120
vt 0.510442 0.466120
vt 0.510442 0.006536
vt 0.970026 0.006536
vt 0.970026 0.466120
vt 0.510442 0.466120
vt 0.510442 0.006536
vt 0.970026 0.006536
vt 0.970026 0.466120
vt 0.510442 0.466120
vt 0.510442 0.006536
vt 0.970026 0.006695
vt 0.969868 0.466120
vt 0.510442 0.465962
vt 0.510601 0.006536
vt 0.970026 0.006536
vt 0.970026 0.466120
vt 0.510442 0.466120
vt 0.510442 0.006536
vt 0.447928 0.361018
vt 0.447928 0.572576
vt 0.024728 0.572576
vt 0.024728 0.361018
vt 0.984356 0.493671
vt 0.984356 0.984845
vt 0.493183 0.984845
vt 0.493183 0.493671
vt 0.984356 0.493671
vt 0.984356 0.984845
vt 0.493183 0.984845
vt 0.493183 0.493671
vt 0.984356 0.493671
vt 0.984356 0.984845
vt 0.493183 0.984845
vt 0.493183 0.493671
vt 0.984356 0.493671
vt 0.984356 0.984845
vt 0.493183 0.984845
vt 0.493183 0.493671
vt 0.984356 0.493671
vt 0.984356 0.984845
vt 0.493183 0.984845
vt 0.493183 0.493671
vt 0.970026 0.006536
vt 0.970026 0.466120
vt 0.510442 0.466120
vt 0.510442 0.006536
vt 0.970026 0.006695
vt 0.969868 0.466120
vt 0.510442 0.465962
vt 0.510601 0.006536
vt 0.970026 0.006536
vt 0.970026 0.466120
vt 0.510442 0.466120
vt 0.510442 0.006536
vt 0.970026 0.006536
vt 0.970026 0.466120
vt 0.510442 0.466120
vt 0.510442 0.006536
vt 0.970026 0.006536
vt 0.970026 0.466120
vt 0.510442 0.466120
vt 0.510442 0.006536
vt 0.447928 0.361018
vt 0.447928 0.572576
vt 0.024728 0.572576
vt 0.024728 0.361018
vt 0.984356 0.493671
vt 0.984356 0.984845
vt 0.493183 0.984845
vt 0.493183 0.493671
vt 0.984356 0.493671
vt 0.984356 0.984845
vt 0.493183 0.984845
vt 0.493183 0.493671
vt 0.984356 0.493671
vt 0.984356 0.984845
vt 0.493183 0.984845
vt 0.493183 0.493671
vt 0.984356 0.493671
vt 0.984356 0.984845
vt 0.493183 0.984845
vt 0.493183 0.493671
vt 0.984356 0.493671
vt 0.984356 0.984845
vt 0.493183 0.984845
vt 0.493183 0.493671
vt 0.970026 0.006536
vt 0.970026 0.466120
vt 0.510442 0.466120
vt 0.510442 0.006536
vt 0.970026 0.006536
vt 0.970026 0.466120
vt 0.510442 0.466120
vt 0.510442 0.006536
vt 0.970026 0.006536
vt 0.970026 0.466120
vt 0.510442 0.466120
vt 0.510442 0.006536
vt 0.970026 0.006536
vt 0.970026 0.466120
vt 0.510442 0.466120
vt 0.510442 0.006536
vt 0.970026 0.006536
vt 0.970026 0.466120
vt 0.510442 0.466120
vt 0.510442 0.006536
vt 0.447928 0.361018
vt 0.447928 0.572576
vt 0.024728 0.572576
vt 0.024728 0.361018
vt 0.984357 0.493671
vt 0.984357 0.984845
vt 0.493183 0.984845
vt 0.493183 0.493671
vt 0.984356 0.493671
vt 0.984356 0.984845
vt 0.493183 0.984845
vt 0.493183 0.493671
vt 0.984356 0.493671
vt 0.984357 0.984845
vt 0.493183 0.984845
vt 0.493183 0.493671
vt 0.984356 0.493671
vt 0.984356 0.984845
vt 0.493183 0.984845
vt 0.493183 0.493671
vt 0.984356 0.493671
vt 0.984356 0.984845
vt 0.493183 0.984845
vt 0.493183 0.493671
vn 0.0000 -1.0000 0.0000
vn 0.0000 1.0000 0.0000
vn 1.0000 -0.0000 0.0000
vn -0.0000 -0.0000 1.0000
vn -1.0000 0.0000 -0.0000
vn 0.0000 -0.0000 -1.0000
usemtl Material.001
s off
f 1/1/1 2/2/1 3/3/1 4/4/1
f 5/5/2 8/6/2 7/7/2 6/8/2
f 19/9/3 5/5/3 6/10/3 30/11/3
f 30/12/4 6/13/4 7/14/4 41/15/4
f 41/16/5 7/17/5 8/6/5 52/18/5
f 9/19/6 1/20/6 4/21/6 42/22/6
f 5/23/6 19/24/6 52/25/6 8/26/6
f 19/27/6 18/28/6 51/29/6 52/30/6
f 18/31/6 17/32/6 50/33/6 51/34/6
f 17/35/6 16/36/6 49/37/6 50/38/6
f 16/39/6 15/40/6 48/41/6 49/42/6
f 15/43/6 14/44/6 47/45/6 48/46/6
f 14/47/6 13/48/6 46/49/6 47/50/6
f 13/51/6 12/52/6 45/53/6 46/54/6
f 12/55/6 11/56/6 44/57/6 45/58/6
f 11/59/6 10/60/6 43/61/6 44/62/6
f 10/63/6 9/64/6 42/65/6 43/66/6
f 3/67/5 31/68/5 42/69/5 4/70/5
f 31/71/5 32/72/5 43/73/5 42/74/5
f 32/75/5 33/76/5 44/77/5 43/78/5
f 33/79/5 34/80/5 45/81/5 44/82/5
f 34/83/5 35/84/5 46/85/5 45/86/5
f 35/87/5 36/88/5 47/89/5 46/90/5
f 36/91/5 37/92/5 48/93/5 47/94/5
f 37/95/5 38/96/5 49/97/5 48/98/5
f 38/99/5 39/100/5 50/101/5 49/102/5
f 39/103/5 40/104/5 51/105/5 50/106/5
f 40/107/5 41/108/5 52/109/5 51/110/5
f 2/111/4 20/112/4 31/113/4 3/114/4
f 20/115/4 21/116/4 32/117/4 31/118/4
f 21/119/4 22/120/4 33/121/4 32/122/4
f 22/123/4 23/124/4 34/125/4 33/126/4
f 23/127/4 24/128/4 35/129/4 34/130/4
f 24/131/4 25/132/4 36/133/4 35/134/4
f 25/135/4 26/136/4 37/137/4 36/138/4
f 26/139/4 27/140/4 38/141/4 37/142/4
f 27/143/4 28/144/4 39/145/4 38/146/4
f 28/147/4 29/148/4 40/149/4 39/150/4
f 29/151/4 30/152/4 41/153/4 40/154/4
f 1/155/3 9/156/3 20/157/3 2/158/3
f 9/159/3 10/160/3 21/161/3 20/162/3
f 10/163/3 11/164/3 22/165/3 21/166/3
f 11/167/3 12/168/3 23/169/3 22/170/3
f 12/171/3 13/172/3 24/173/3 23/174/3
f 13/175/3 14/176/3 25/177/3 24/178/3
f 14/179/3 15/180/3 26/181/3 25/182/3
f 15/183/3 16/184/3 27/185/3 26/186/3
f 16/187/3 17/188/3 28/189/3 27/190/3
f 17/191/3 18/192/3 29/193/3 28/194/3
f 18/195/3 19/196/3 30/197/3 29/198/3
