# Blender v2.79 (sub 0) OBJ File: 'Generator.blend'
# www.blender.org
mtllib Generator.mtl
o Cube
v -0.200000 0.000000 1.000000
v -0.200000 2.600000 1.000000
v -0.200000 0.000000 -1.000000
v -0.200000 2.600000 -1.000000
v 0.500000 0.000000 1.000000
v 0.800000 1.750000 0.750000
v 0.500000 0.000000 -1.000000
v 0.800000 2.000000 -1.000000
v 0.800000 1.000000 -1.000000
v 0.500000 0.000000 0.000000
v 0.800000 1.750000 0.250000
v 0.800000 1.250000 0.750000
v 0.800000 1.250000 0.250000
v 0.800000 2.000000 0.000000
v 0.800000 2.000000 1.000000
v 0.800000 1.000000 1.000000
v 0.800000 1.000000 0.000000
v 0.830000 1.700000 0.700000
v 0.830000 1.700000 0.300000
v 0.830000 1.300000 0.700000
v 0.830000 1.300000 0.300000
v 0.830000 1.750000 0.250000
v 0.830000 1.750000 0.750000
v 0.830000 1.250000 0.750000
v 0.830000 1.250000 0.250000
v 0.800000 1.700000 0.700000
v 0.800000 1.700000 0.300000
v 0.800000 1.300000 0.700000
v 0.800000 1.300000 0.300000
v 0.800000 1.700000 0.500000
v 0.800000 1.490000 0.690000
v 0.800000 1.300000 0.500000
v 0.800000 1.500000 0.300000
v 0.800000 1.490000 0.510000
v 0.800000 1.700000 0.600000
v 0.800000 1.400000 0.690000
v 0.800000 1.300000 0.600000
v 0.800000 1.400000 0.300000
v 0.800000 1.700000 0.400000
v 0.800000 1.600000 0.700000
v 0.800000 1.300000 0.400000
v 0.800000 1.600000 0.300000
v 0.800000 1.490000 0.600000
v 0.800000 1.500000 0.400000
v 0.800000 1.400000 0.510000
v 0.800000 1.600000 0.500000
v 0.800000 1.600000 0.400000
v 0.800000 1.600000 0.600000
v 0.820000 1.500000 0.520000
v 0.820000 1.500000 0.580000
v 0.850000 1.600000 0.520000
v 0.850000 1.600000 0.580000
v 0.840000 1.500000 0.480000
v 0.840000 1.500000 0.420000
v 0.820000 1.600000 0.480000
v 0.820000 1.600000 0.420000
v 0.830000 1.510000 0.310000
v 0.830000 1.590000 0.310000
v 0.830000 1.510000 0.390000
v 0.830000 1.590000 0.390000
v 0.820000 1.500000 0.680000
v 0.850000 1.600000 0.680000
v 0.820000 1.500000 0.620000
v 0.850000 1.600000 0.620000
v 0.830000 1.328246 0.328246
v 0.830000 1.328246 0.471754
v 0.830000 1.471754 0.328246
v 0.830000 1.471754 0.471754
v 0.830000 1.400000 0.310308
v 0.830000 1.310308 0.400000
v 0.830000 1.489692 0.400000
v 0.830000 1.400000 0.489692
v 0.830000 1.400000 0.300000
v 0.830000 1.320000 0.320000
v 0.830000 1.300000 0.400000
v 0.830000 1.320000 0.480000
v 0.830000 1.500000 0.400000
v 0.830000 1.480000 0.480000
v 0.830000 1.400000 0.500000
v 0.830000 1.480000 0.320000
v 0.820000 1.328246 0.328246
v 0.820000 1.328246 0.471754
v 0.820000 1.471754 0.328246
v 0.820000 1.471754 0.471754
v 0.820000 1.400000 0.310308
v 0.820000 1.310308 0.400000
v 0.820000 1.489692 0.400000
v 0.820000 1.400000 0.489692
v 0.830000 1.687500 0.500000
v 0.830000 1.687500 0.575000
v 0.830000 1.687500 0.425000
v 0.830000 1.612500 0.500000
v 0.830000 1.612500 0.425000
v 0.830000 1.612500 0.575000
v 0.820000 1.687500 0.500000
v 0.820000 1.687500 0.575000
v 0.820000 1.687500 0.425000
v 0.820000 1.612500 0.500000
v 0.820000 1.612500 0.425000
v 0.820000 1.612500 0.575000
v 0.800000 1.400000 0.700000
v 0.800000 1.500000 0.600000
v 0.800000 1.310000 0.690000
v 0.800000 1.500000 0.700000
v 0.800000 1.400000 0.500000
v 0.800000 1.500000 0.500000
v 0.800000 1.310000 0.510000
v 0.820000 1.465000 0.665000
v 0.820000 1.465000 0.535000
v 0.820000 1.400000 0.665000
v 0.820000 1.465000 0.600000
v 0.820000 1.400000 0.535000
v 0.820000 1.335000 0.665000
v 0.820000 1.335000 0.535000
v 0.820000 1.310000 0.690000
v 0.820000 1.310000 0.510000
v 0.820000 1.400000 0.690000
v 0.820000 1.490000 0.600000
v 0.820000 1.490000 0.690000
v 0.820000 1.400000 0.510000
v 0.820000 1.490000 0.510000
v 0.790000 1.465000 0.665000
v 0.790000 1.465000 0.535000
v 0.790000 1.400000 0.665000
v 0.790000 1.400000 0.535000
v 0.790000 1.335000 0.665000
v 0.790000 1.335000 0.535000
v 0.790000 1.367500 0.535000
v 0.790000 1.432500 0.535000
v 0.790000 1.367500 0.665000
v 0.790000 1.432500 0.665000
v 0.790000 1.412500 0.560000
v 0.790000 1.412500 0.642500
v 0.790000 1.387500 0.560000
v 0.790000 1.387500 0.642500
v 0.830000 1.440000 0.560000
v 0.830000 1.440000 0.642500
vt 0.157838 0.400602
vt 0.157838 0.006111
vt 0.461293 0.006111
vt 0.461293 0.400602
vt 0.613020 0.513492
vt 0.613020 0.907983
vt 0.461293 0.816946
vt 0.461293 0.665219
vt 0.506811 0.513492
vt 0.629793 0.006111
vt 0.705657 0.006111
vt 0.705657 0.010663
vt 0.629793 0.010663
vt 0.112320 0.513492
vt 0.157838 0.665219
vt 0.157838 0.816946
vt 0.006111 0.907983
vt 0.006111 0.513492
vt 0.461293 0.506811
vt 0.309565 0.506811
vt 0.157838 0.506811
vt 0.461293 0.993889
vt 0.157838 0.993889
vt 0.309565 0.816946
vt 0.309565 0.665219
vt 0.195770 0.779014
vt 0.271634 0.779014
vt 0.195770 0.703151
vt 0.271634 0.703151
vt 0.625241 0.515114
vt 0.685933 0.515114
vt 0.685933 0.519665
vt 0.670760 0.519665
vt 0.655587 0.519665
vt 0.640414 0.519665
vt 0.625241 0.519665
vt 0.705657 0.091078
vt 0.629793 0.091078
vt 0.629793 0.086526
vt 0.705657 0.086526
vt 0.710209 0.010663
vt 0.710209 0.086526
vt 0.625241 0.086526
vt 0.625241 0.010663
vt 0.637380 0.078940
vt 0.698071 0.078940
vt 0.637380 0.018249
vt 0.698071 0.018249
vt 0.644971 0.148824
vt 0.644966 0.163997
vt 0.629793 0.163992
vt 0.629798 0.148819
vt 0.690483 0.168564
vt 0.629792 0.168543
vt 0.660139 0.164002
vt 0.675312 0.164007
vt 0.690484 0.164012
vt 0.695056 0.103322
vt 0.695036 0.164013
vt 0.690489 0.148839
vt 0.690495 0.133666
vt 0.690500 0.118493
vt 0.690505 0.103320
vt 0.625241 0.163990
vt 0.625262 0.103299
vt 0.629814 0.103301
vt 0.629808 0.118473
vt 0.629803 0.133646
vt 0.628773 0.183359
vt 0.643726 0.180785
vt 0.644830 0.185201
vt 0.632692 0.188236
vt 0.644063 0.347678
vt 0.628891 0.347678
vt 0.632684 0.342747
vt 0.644063 0.342747
vt 0.647706 0.485575
vt 0.645261 0.500549
vt 0.641025 0.499858
vt 0.641025 0.484384
vt 0.643695 0.553621
vt 0.628522 0.553621
vt 0.630040 0.548823
vt 0.642178 0.548823
vt 0.675317 0.148834
vt 0.625241 0.199270
vt 0.627816 0.184317
vt 0.629657 0.200374
vt 0.661845 0.184317
vt 0.664419 0.199270
vt 0.660003 0.200374
vt 0.656968 0.188236
vt 0.660887 0.217389
vt 0.645934 0.219962
vt 0.644830 0.215546
vt 0.656968 0.212512
vt 0.625241 0.417645
vt 0.628955 0.402933
vt 0.633116 0.403984
vt 0.633116 0.419824
vt 0.625241 0.456328
vt 0.628955 0.441616
vt 0.633116 0.442667
vt 0.633116 0.458508
vt 0.662885 0.327954
vt 0.662885 0.343126
vt 0.656960 0.341230
vt 0.656960 0.329850
vt 0.642220 0.442667
vt 0.642220 0.458508
vt 0.645254 0.466094
vt 0.630082 0.466094
vt 0.646381 0.441616
vt 0.650094 0.456328
vt 0.630082 0.439632
vt 0.645254 0.439632
vt 0.631922 0.499858
vt 0.631922 0.484384
vt 0.644060 0.502892
vt 0.628887 0.502892
vt 0.627686 0.500549
vt 0.625241 0.485575
vt 0.628887 0.478315
vt 0.644060 0.478315
vt 0.642178 0.536685
vt 0.630040 0.536685
vt 0.628522 0.531887
vt 0.643695 0.531887
vt 0.625241 0.550340
vt 0.625241 0.535168
vt 0.646976 0.535168
vt 0.646976 0.550340
vt 0.642220 0.403984
vt 0.642220 0.419824
vt 0.646381 0.402933
vt 0.650094 0.417645
vt 0.645254 0.427411
vt 0.630082 0.427411
vt 0.630082 0.400949
vt 0.645254 0.400949
vt 0.664419 0.201478
vt 0.661845 0.216431
vt 0.627815 0.216430
vt 0.625241 0.201478
vt 0.632692 0.212512
vt 0.643726 0.219962
vt 0.628773 0.217388
vt 0.645934 0.180785
vt 0.660887 0.183359
vt 0.641158 0.265579
vt 0.631536 0.259805
vt 0.632316 0.258504
vt 0.641939 0.264278
vt 0.658439 0.200374
vt 0.655717 0.189487
vt 0.644830 0.186765
vt 0.633943 0.189487
vt 0.633943 0.211261
vt 0.644830 0.213983
vt 0.631221 0.200374
vt 0.655717 0.211261
vt 0.641939 0.233485
vt 0.651562 0.239259
vt 0.657336 0.248881
vt 0.651562 0.258504
vt 0.626543 0.248881
vt 0.632316 0.239259
vt 0.631536 0.237958
vt 0.641158 0.232184
vt 0.631015 0.259285
vt 0.625241 0.249662
vt 0.625241 0.248101
vt 0.631015 0.238478
vt 0.658637 0.249662
vt 0.652863 0.259285
vt 0.652863 0.238478
vt 0.658637 0.248101
vt 0.652342 0.259805
vt 0.642720 0.265579
vt 0.642720 0.232184
vt 0.652343 0.237958
vt 0.631167 0.341230
vt 0.631167 0.329850
vt 0.632684 0.329850
vt 0.632684 0.341230
vt 0.644063 0.341230
vt 0.625241 0.343126
vt 0.625241 0.327954
vt 0.628891 0.323402
vt 0.644063 0.323402
vt 0.644063 0.328333
vt 0.632684 0.328333
vt 0.659236 0.347678
vt 0.655443 0.342747
vt 0.659236 0.323402
vt 0.655443 0.328333
vt 0.655443 0.329850
vt 0.655443 0.341230
vt 0.644063 0.329850
vt 0.625241 0.294490
vt 0.625241 0.280835
vt 0.628276 0.280835
vt 0.628276 0.294490
vt 0.631330 0.104819
vt 0.631326 0.118474
vt 0.631321 0.132129
vt 0.644977 0.132134
vt 0.644976 0.133651
vt 0.658636 0.118483
vt 0.658641 0.104828
vt 0.660159 0.103311
vt 0.660154 0.118484
vt 0.658632 0.132138
vt 0.660149 0.133656
vt 0.629793 0.388728
vt 0.629793 0.384176
vt 0.649518 0.384176
vt 0.649518 0.388728
vt 0.639656 0.388728
vt 0.658621 0.294490
vt 0.658621 0.308146
vt 0.655587 0.308146
vt 0.655587 0.294490
vt 0.625241 0.308146
vt 0.628276 0.308146
vt 0.641931 0.311180
vt 0.628276 0.311180
vt 0.641931 0.308146
vt 0.628276 0.277800
vt 0.655587 0.277800
vt 0.655587 0.280835
vt 0.655587 0.311180
vt 0.658621 0.280835
vt 0.651794 0.284628
vt 0.632069 0.284628
vt 0.632069 0.294490
vt 0.632069 0.304353
vt 0.641931 0.304353
vt 0.651794 0.294490
vt 0.651794 0.304353
vt 0.629793 0.364451
vt 0.649518 0.364451
vt 0.649518 0.369382
vt 0.645725 0.372417
vt 0.633207 0.372417
vt 0.629793 0.369382
vt 0.654070 0.364451
vt 0.654070 0.374314
vt 0.649518 0.374314
vt 0.625241 0.374314
vt 0.625241 0.364451
vt 0.629793 0.374314
vt 0.654070 0.384176
vt 0.649518 0.379245
vt 0.625241 0.384176
vt 0.629793 0.379245
vt 0.629793 0.359900
vt 0.649518 0.359900
vt 0.633207 0.376210
vt 0.645725 0.376210
vt 0.625241 0.568860
vt 0.627540 0.565842
vt 0.627540 0.575857
vt 0.640058 0.565842
vt 0.640058 0.575857
vt 0.640058 0.583222
vt 0.627540 0.583222
vt 0.642357 0.568860
vn -1.0000 0.0000 0.0000
vn 0.0000 0.0000 -1.0000
vn 0.0000 -1.0000 0.0000
vn 0.0000 0.0000 1.0000
vn 0.5145 0.8575 0.0000
vn 0.9578 -0.2873 0.0000
vn 1.0000 0.0000 0.0000
vn 0.0000 1.0000 0.0000
vn 0.3454 -0.9327 0.1036
vn 0.3846 0.9231 0.0000
vn 0.5538 0.0554 -0.8308
vn 0.3162 0.9487 0.0000
vn 0.3454 -0.1036 0.9327
vn 0.3454 -0.1036 -0.9327
vn 0.3454 0.9327 -0.1036
vn 0.4948 -0.0742 0.8658
vn 0.6402 0.0000 -0.7682
vn 0.4948 -0.0742 -0.8658
vn 0.9806 0.1961 0.0000
vn 0.5538 0.0554 0.8308
vn 0.3162 -0.9487 0.0000
vn 0.3162 0.0000 0.9487
vn 0.3162 0.0000 -0.9487
vn 0.3454 0.1036 -0.9327
vn 0.3454 0.1036 0.9327
vn 0.3454 0.9327 0.1036
vn 0.3454 -0.9327 -0.1036
vn 0.0000 -0.2425 -0.9701
vn 0.0000 0.9701 0.2425
vn 0.0000 0.2425 -0.9701
vn 0.0000 0.9701 -0.2425
vn 0.0000 -0.9701 0.2425
vn 0.0000 -0.2425 0.9701
vn 0.0000 -0.9701 -0.2425
vn 0.0000 0.2425 0.9701
vn 0.6402 0.0000 0.7682
vn 0.3846 -0.9231 0.0000
vn 0.7954 -0.6060 0.0000
vn -0.5665 0.8240 0.0000
usemtl Material
s off
f 1/1/1 2/2/1 4/3/1 3/4/1
f 3/5/2 4/6/2 8/7/2 9/8/2 7/9/2
f 12/10/3 13/11/3 25/12/3 24/13/3
f 5/14/4 16/15/4 15/16/4 2/17/4 1/18/4
f 3/4/3 7/19/3 10/20/3 5/21/3 1/1/3
f 8/7/5 4/22/5 2/23/5 15/16/5 14/24/5
f 10/20/6 17/25/6 16/15/6 5/21/6
f 7/19/6 9/8/6 17/25/6 10/20/6
f 9/8/7 8/7/7 14/24/7 17/25/7
f 6/26/7 11/27/7 14/24/7 15/16/7
f 12/28/7 6/26/7 15/16/7 16/15/7
f 13/29/7 12/28/7 16/15/7 17/25/7
f 11/27/7 13/29/7 17/25/7 14/24/7
f 20/30/8 21/31/8 29/32/8 41/33/8 32/34/8 37/35/8 28/36/8
f 11/37/8 6/38/8 23/39/8 22/40/8
f 13/41/2 11/42/2 22/40/2 25/12/2
f 6/43/4 12/44/4 24/13/4 23/39/4
f 18/45/7 19/46/7 22/40/7 23/39/7
f 20/47/7 18/45/7 23/39/7 24/13/7
f 21/48/7 20/47/7 24/13/7 25/12/7
f 19/46/7 21/48/7 25/12/7 22/40/7
f 48/49/7 35/50/7 26/51/7 40/52/7
f 19/53/3 18/54/3 26/51/3 35/50/3 30/55/3 39/56/3 27/57/3
f 21/58/4 19/59/4 27/57/4 42/60/4 33/61/4 38/62/4 29/63/4
f 18/64/2 20/65/2 28/66/2 101/67/2 104/68/2 40/52/2 26/51/2
f 32/69/9 41/70/9 75/71/9 76/72/9
f 30/73/10 35/74/10 90/75/10 89/76/10
f 44/77/11 47/78/11 56/79/11 54/80/11
f 42/81/12 47/82/12 60/83/12 58/84/12
f 42/60/7 27/57/7 39/56/7 47/85/7
f 105/86/13 32/87/13 76/72/13 79/88/13
f 29/89/14 38/90/14 73/91/14 74/92/14
f 33/93/15 44/94/15 77/95/15 80/96/15
f 40/97/16 104/98/16 61/99/16 62/100/16
f 48/101/16 102/102/16 50/103/16 52/104/16
f 47/105/17 39/106/17 91/107/17 93/108/17
f 49/109/6 51/110/6 52/104/6 50/103/6
f 46/111/8 48/112/8 52/104/8 51/110/8
f 106/113/18 46/114/18 51/110/18 49/109/18
f 102/115/3 106/116/3 49/109/3 50/103/3
f 54/80/19 56/79/19 55/117/19 53/118/19
f 47/119/8 46/120/8 55/117/8 56/79/8
f 46/121/20 106/122/20 53/118/20 55/117/20
f 106/123/3 44/124/3 54/80/3 53/118/3
f 57/125/7 58/84/7 60/83/7 59/126/7
f 44/127/21 33/128/21 57/125/21 59/126/21
f 47/129/22 44/130/22 59/126/22 60/83/22
f 33/131/23 42/132/23 58/84/23 57/125/23
f 63/133/6 64/134/6 62/100/6 61/99/6
f 102/135/18 48/136/18 64/134/18 63/133/18
f 48/137/8 40/138/8 62/100/8 64/134/8
f 104/139/3 102/140/3 63/133/3 61/99/3
f 38/141/24 33/142/24 80/96/24 73/91/24
f 106/143/25 105/144/25 79/88/25 78/145/25
f 44/146/26 106/147/26 78/145/26 77/95/26
f 41/148/27 29/149/27 74/92/27 75/71/27
f 68/150/28 72/151/28 88/152/28 84/153/28
f 69/154/7 65/155/7 74/92/7 73/91/7
f 70/156/7 66/157/7 76/72/7 75/71/7
f 68/158/7 71/159/7 77/95/7 78/145/7
f 66/157/7 72/160/7 79/88/7 76/72/7
f 67/161/7 69/154/7 73/91/7 80/96/7
f 65/155/7 70/156/7 75/71/7 74/92/7
f 71/159/7 67/161/7 80/96/7 77/95/7
f 72/160/7 68/158/7 78/145/7 79/88/7
f 81/162/7 85/163/7 83/164/7 87/165/7 84/153/7 88/152/7 82/166/7 86/167/7
f 70/168/29 65/169/29 81/162/29 86/167/29
f 72/170/30 66/171/30 82/166/30 88/152/30
f 66/172/31 70/173/31 86/167/31 82/166/31
f 67/174/32 71/175/32 87/165/32 83/164/32
f 69/176/33 67/177/33 83/164/33 85/163/33
f 71/178/34 68/179/34 84/153/34 87/165/34
f 65/180/35 69/181/35 85/163/35 81/162/35
f 90/182/2 94/183/2 100/184/2 96/185/2
f 89/76/3 90/75/3 96/185/3 95/186/3
f 35/187/36 48/188/36 94/183/36 90/182/36
f 48/189/37 46/190/37 92/191/37 94/192/37
f 39/193/10 30/73/10 89/76/10 91/194/10
f 46/190/37 47/195/37 93/196/37 92/191/37
f 99/197/7 97/198/7 95/186/7 98/199/7
f 98/199/7 95/186/7 96/185/7 100/184/7
f 93/108/4 91/107/4 97/198/4 99/197/4
f 91/194/3 89/76/3 95/186/3 97/198/3
f 94/192/8 92/191/8 98/199/8 100/184/8
f 92/191/8 93/196/8 99/197/8 98/199/8
f 36/200/4 103/201/4 115/202/4 117/203/4
f 103/204/7 36/205/7 101/67/7 28/66/7
f 31/206/7 43/207/7 102/208/7 104/68/7
f 45/209/7 107/210/7 32/211/7 105/212/7
f 36/205/7 31/206/7 104/68/7 101/67/7
f 43/207/7 34/213/7 106/214/7 102/208/7
f 34/213/7 45/209/7 105/212/7 106/214/7
f 107/210/7 103/204/7 28/66/7 32/211/7
f 108/215/3 122/216/3 123/217/3 109/218/3 111/219/3
f 45/220/2 34/221/2 121/222/2 120/223/2
f 31/224/4 36/200/4 117/203/4 119/225/4
f 43/226/8 31/227/8 119/225/8 118/228/8
f 103/229/3 107/230/3 116/231/3 115/202/3
f 34/232/8 43/226/8 118/228/8 121/222/8
f 107/233/2 45/220/2 120/223/2 116/231/2
f 114/234/7 113/235/7 115/202/7 116/231/7
f 113/235/7 110/236/7 117/203/7 115/202/7
f 108/237/7 111/238/7 118/228/7 119/225/7
f 112/239/7 114/234/7 116/231/7 120/223/7
f 110/236/7 108/237/7 119/225/7 117/203/7
f 111/238/7 109/240/7 121/222/7 118/228/7
f 109/240/7 112/239/7 120/223/7 121/222/7
f 126/241/7 127/242/7 128/243/7 134/244/7 135/245/7 130/246/7
f 114/247/4 112/248/4 125/249/4 128/243/4 127/242/4
f 110/250/2 113/251/2 126/241/2 130/246/2 124/252/2
f 112/248/4 109/253/4 123/217/4 129/254/4 125/249/4
f 108/255/2 110/250/2 124/252/2 131/256/2 122/216/2
f 113/257/8 114/258/8 127/242/8 126/241/8
f 129/254/7 123/217/7 122/216/7 131/256/7 133/259/7 132/260/7
f 129/254/7 132/260/7 134/244/7 128/243/7 125/249/7
f 124/252/7 130/246/7 135/245/7 133/259/7 131/256/7
f 133/261/4 135/262/4 137/263/4
f 135/262/38 134/264/38 136/265/38 137/263/38
f 132/266/39 133/267/39 137/263/39 136/265/39
f 134/264/2 132/268/2 136/265/2
