# Blender v2.76 (sub 0) OBJ File: 'wall.blend'
# www.blender.org
mtllib wall.mtl
o Cube
v 0.100000 0.000000 -0.100000
v 0.100000 0.000000 0.100000
v -0.100000 0.000000 0.100000
v -0.100000 0.000000 -0.100000
v 0.100000 2.300000 -0.100000
v 0.100000 2.300000 0.100000
v -0.100000 2.300000 0.100000
v -0.100000 2.300000 -0.100000
v 0.100000 0.200000 -0.100000
v 0.100000 0.400000 -0.100000
v 0.100000 0.600000 -0.100000
v 0.100000 0.800000 -0.100000
v 0.100000 1.000000 -0.100000
v 0.100000 1.100000 -0.100000
v 0.100000 1.300000 -0.100000
v 0.100000 1.500000 -0.100000
v 0.100000 1.700000 -0.100000
v 0.100000 1.900000 -0.100000
v 0.100000 2.100000 -0.100000
v 0.100000 0.200000 0.100000
v 0.100000 0.400000 0.100000
v 0.100000 0.600000 0.100000
v 0.100000 0.800000 0.100000
v 0.100000 1.000000 0.100000
v 0.100000 1.100000 0.100000
v 0.100000 1.300000 0.100000
v 0.100000 1.500000 0.100000
v 0.100000 1.700000 0.100000
v 0.100000 1.900000 0.100000
v 0.100000 2.100000 0.100000
v -0.100000 0.200000 0.100000
v -0.100000 0.400000 0.100000
v -0.100000 0.600000 0.100000
v -0.100000 0.800000 0.100000
v -0.100000 1.000000 0.100000
v -0.100000 1.100000 0.100000
v -0.100000 1.300000 0.100000
v -0.100000 1.500000 0.100000
v -0.100000 1.700000 0.100000
v -0.100000 1.900000 0.100000
v -0.100000 2.100000 0.100000
v -0.100000 0.200000 -0.100000
v -0.100000 0.400000 -0.100000
v -0.100000 0.600000 -0.100000
v -0.100000 0.800000 -0.100000
v -0.100000 1.000000 -0.100000
v -0.100000 1.100000 -0.100000
v -0.100000 1.300000 -0.100000
v -0.100000 1.500000 -0.100000
v -0.100000 1.700000 -0.100000
v -0.100000 1.900000 -0.100000
v -0.100000 2.100000 -0.100000
vt 0.868913 0.453874
vt 0.625228 0.453874
vt 0.625228 0.210189
vt 0.868913 0.210189
vt 0.984357 0.984845
vt 0.493183 0.984845
vt 0.493183 0.493671
vt 0.984356 0.493671
vt 0.508786 0.462894
vt 0.507809 0.005856
vt 0.968753 0.005856
vt 0.969730 0.462894
vt 0.003852 0.581547
vt 0.003852 0.348140
vt 0.470757 0.348140
vt 0.470757 0.581547
vt 0.508786 0.462735
vt 0.507968 0.005856
vt 0.968753 0.006015
vt 0.969571 0.462894
vn 0.000000 -1.000000 0.000000
vn 0.000000 1.000000 0.000000
vn 1.000000 -0.000000 0.000000
vn -0.000000 -0.000000 1.000000
vn -1.000000 0.000000 -0.000000
vn 0.000000 -0.000000 -1.000000
usemtl Material.001
s off
f 1/1/1 2/2/1 3/3/1 4/4/1
f 5/5/2 8/6/2 7/7/2 6/8/2
f 19/8/3 5/5/3 6/6/3 30/7/3
f 30/8/4 6/5/4 7/6/4 41/7/4
f 41/8/5 7/5/5 8/6/5 52/7/5
f 9/9/6 1/10/6 4/11/6 42/12/6
f 5/6/6 19/7/6 52/8/6 8/5/6
f 19/6/6 18/7/6 51/8/6 52/5/6
f 18/6/6 17/7/6 50/8/6 51/5/6
f 17/6/6 16/7/6 49/8/6 50/5/6
f 16/6/6 15/7/6 48/8/6 49/5/6
f 15/6/6 14/7/6 47/8/6 48/5/6
f 14/13/6 13/14/6 46/15/6 47/16/6
f 13/9/6 12/10/6 45/11/6 46/12/6
f 12/17/6 11/18/6 44/19/6 45/20/6
f 11/9/6 10/10/6 43/11/6 44/12/6
f 10/9/6 9/10/6 42/11/6 43/12/6
f 3/11/5 31/12/5 42/9/5 4/10/5
f 31/11/5 32/12/5 43/9/5 42/10/5
f 32/11/5 33/12/5 44/9/5 43/10/5
f 33/19/5 34/20/5 45/17/5 44/18/5
f 34/11/5 35/12/5 46/9/5 45/10/5
f 35/15/5 36/16/5 47/13/5 46/14/5
f 36/8/5 37/5/5 48/6/5 47/7/5
f 37/8/5 38/5/5 49/6/5 48/7/5
f 38/8/5 39/5/5 50/6/5 49/7/5
f 39/8/5 40/5/5 51/6/5 50/7/5
f 40/8/5 41/5/5 52/6/5 51/7/5
f 2/11/4 20/12/4 31/9/4 3/10/4
f 20/19/4 21/20/4 32/17/4 31/18/4
f 21/11/4 22/12/4 33/9/4 32/10/4
f 22/11/4 23/12/4 34/9/4 33/10/4
f 23/11/4 24/12/4 35/9/4 34/10/4
f 24/15/4 25/16/4 36/13/4 35/14/4
f 25/8/4 26/5/4 37/6/4 36/7/4
f 26/8/4 27/5/4 38/6/4 37/7/4
f 27/8/4 28/5/4 39/6/4 38/7/4
f 28/8/4 29/5/4 40/6/4 39/7/4
f 29/8/4 30/5/4 41/6/4 40/7/4
f 1/11/3 9/12/3 20/9/3 2/10/3
f 9/11/3 10/12/3 21/9/3 20/10/3
f 10/11/3 11/12/3 22/9/3 21/10/3
f 11/11/3 12/12/3 23/9/3 22/10/3
f 12/11/3 13/12/3 24/9/3 23/10/3
f 13/15/3 14/16/3 25/13/3 24/14/3
f 14/8/3 15/5/3 26/6/3 25/7/3
f 15/8/3 16/5/3 27/6/3 26/7/3
f 16/8/3 17/5/3 28/6/3 27/7/3
f 17/8/3 18/5/3 29/6/3 28/7/3
f 18/8/3 19/5/3 30/6/3 29/7/3
