# Blender v2.79 (sub 0) OBJ File: 'Light_switch.blend'
# www.blender.org
mtllib Light_switch.mtl
o Cube.001_Cube.002
v 0.110000 0.850000 0.050000
v 0.110000 0.975000 0.050000
v 0.110000 0.850000 -0.050000
v 0.110000 0.975000 -0.050000
v 0.135000 0.860000 0.040000
v 0.135000 0.965000 0.040000
v 0.135000 0.860000 -0.040000
v 0.135000 0.965000 -0.040000
v 0.100000 0.850000 0.050000
v 0.100000 0.975000 0.050000
v 0.100000 0.850000 -0.050000
v 0.100000 0.975000 -0.050000
v 0.110000 0.861667 0.050000
v 0.110000 0.963333 0.050000
v 0.110000 0.963333 -0.050000
v 0.110000 0.861667 -0.050000
v 0.135000 0.960000 -0.040000
v 0.135000 0.865000 -0.040000
v 0.135000 0.960000 0.040000
v 0.135000 0.865000 0.040000
v 0.100000 0.861667 0.050000
v 0.100000 0.963333 0.050000
v 0.100000 0.963333 -0.050000
v 0.100000 0.861667 -0.050000
v 0.110000 0.850000 -0.036667
v 0.110000 0.850000 0.036667
v 0.110000 0.975000 0.036667
v 0.110000 0.975000 -0.036667
v 0.135000 0.860000 0.033333
v 0.135000 0.860000 -0.033333
v 0.135000 0.965000 -0.033333
v 0.135000 0.965000 0.033333
v 0.100000 0.850000 -0.036667
v 0.100000 0.850000 0.036667
v 0.100000 0.975000 0.036667
v 0.100000 0.975000 -0.036667
v 0.100000 0.861667 0.036667
v 0.100000 0.861667 -0.036667
v 0.100000 0.963333 0.036667
v 0.100000 0.963333 -0.036667
v 0.135000 0.865000 -0.033333
v 0.135000 0.865000 0.033333
v 0.135000 0.960000 -0.033333
v 0.135000 0.960000 0.033333
v 0.125000 0.905000 -0.013333
v 0.125000 0.905000 0.013333
v 0.125000 0.920000 -0.013333
v 0.125000 0.920000 0.013333
v 0.125000 0.875000 -0.023333
v 0.125000 0.875000 0.023333
v 0.125000 0.950000 -0.023333
v 0.125000 0.950000 0.023333
v 0.155000 0.925000 -0.013333
v 0.155000 0.925000 0.013333
v 0.145000 0.930000 -0.013333
v 0.145000 0.930000 0.013333
vt 0.448924 0.675507
vt 0.499751 0.675524
vt 0.499738 0.713645
vt 0.448911 0.713628
vt 0.580107 0.550765
vt 0.580092 0.595239
vt 0.477461 0.557083
vt 0.477468 0.538023
vt 0.182121 0.553711
vt 0.182114 0.572772
vt 0.156701 0.572763
vt 0.156707 0.553703
vt 0.140923 0.537907
vt 0.140916 0.556968
vt 0.038260 0.595053
vt 0.038275 0.550579
vt 0.169591 0.038277
vt 0.182263 0.140925
vt 0.156849 0.140916
vt 0.118764 0.038260
vt 0.169372 0.675411
vt 0.118544 0.675393
vt 0.669482 0.432173
vt 0.669482 0.476647
vt 0.618654 0.476647
vt 0.618654 0.432173
vt 0.118777 0.000139
vt 0.169604 0.000157
vt 0.580240 0.163205
vt 0.580255 0.118731
vt 0.618376 0.118744
vt 0.618361 0.163218
vt 0.000139 0.595040
vt 0.000154 0.550566
vt 0.038423 0.118545
vt 0.038408 0.163019
vt 0.000287 0.163006
vt 0.000303 0.118532
vt 0.618228 0.550778
vt 0.618212 0.595252
vt 0.669482 0.000139
vt 0.669482 0.044613
vt 0.618654 0.044613
vt 0.618654 0.000139
vt 0.141054 0.156701
vt 0.141047 0.175761
vt 0.182256 0.159985
vt 0.156843 0.159976
vt 0.166461 0.175770
vt 0.166336 0.537916
vt 0.477593 0.175877
vt 0.477599 0.156817
vt 0.452054 0.538014
vt 0.452179 0.175868
vt 0.220358 0.213909
vt 0.220260 0.499814
vt 0.461815 0.141021
vt 0.461808 0.160081
vt 0.436394 0.160073
vt 0.436401 0.141012
vt 0.999861 0.044613
vt 0.999861 0.432173
vt 0.949033 0.432173
vt 0.949033 0.044613
vt 0.999861 0.000139
vt 0.949033 0.000139
vt 0.499971 0.038391
vt 0.449143 0.038373
vt 0.449156 0.000253
vt 0.499984 0.000270
vt 0.999861 0.476647
vt 0.949033 0.476647
vt 0.461666 0.572868
vt 0.436252 0.572859
vt 0.461672 0.553808
vt 0.436259 0.553799
vt 0.169359 0.713531
vt 0.118531 0.713514
vt 0.958983 0.682564
vt 0.907838 0.708136
vt 0.839646 0.656992
vt 0.839646 0.614372
vt 0.398157 0.499875
vt 0.398255 0.213970
vt 0.360095 0.328319
vt 0.258440 0.328284
vt 0.258420 0.385465
vt 0.360075 0.385500
vt 0.737991 0.656992
vt 0.737991 0.614372
vt 0.737991 0.476926
vt 0.839646 0.476926
vt 0.669798 0.708136
vt 0.618654 0.682564
vt 0.839646 0.742232
vt 0.737991 0.742232
vn 0.0000 1.0000 0.0000
vn 0.3714 0.0000 -0.9285
vn 1.0000 0.0000 0.0000
vn 0.3714 0.0000 0.9285
vn 0.3714 -0.9285 0.0000
vn 0.3714 0.9285 0.0000
vn -1.0000 0.0000 0.0000
vn 0.0000 -1.0000 0.0000
vn 0.0000 0.0000 -1.0000
vn 0.0000 0.0000 1.0000
vn 0.7071 0.0000 -0.7071
vn 0.7071 -0.7071 0.0000
vn 0.7071 0.7071 0.0000
vn 0.7071 0.0000 0.7071
vn 0.4472 0.8944 0.0000
vn 0.5547 -0.8321 0.0000
vn -0.4472 0.8944 0.0000
usemtl Material
s off
f 28/1/1 4/2/1 12/3/1 36/4/1
f 15/5/2 4/6/2 8/7/2 17/8/2
f 44/9/3 32/10/3 6/11/3 19/12/3
f 19/13/4 6/14/4 2/15/4 14/16/4
f 26/17/5 29/18/5 5/19/5 1/20/5
f 32/10/6 27/21/6 2/22/6 6/11/6
f 40/23/7 36/24/7 12/25/7 23/26/7
f 26/17/8 1/20/8 9/27/8 34/28/8
f 16/29/9 3/30/9 11/31/9 24/32/9
f 14/16/10 2/15/10 10/33/10 22/34/10
f 1/35/10 13/36/10 21/37/10 9/38/10
f 13/36/10 14/16/10 22/34/10 21/37/10
f 4/6/9 15/5/9 23/39/9 12/40/9
f 15/5/9 16/29/9 24/32/9 23/39/9
f 33/41/7 38/42/7 24/43/7 11/44/7
f 38/42/7 40/23/7 23/26/7 24/43/7
f 5/45/4 20/46/4 13/36/4 1/35/4
f 20/46/4 19/13/4 14/16/4 13/36/4
f 29/18/3 42/47/3 20/48/3 5/19/3
f 42/49/3 44/50/3 19/13/3 20/46/3
f 3/30/2 16/29/2 18/51/2 7/52/2
f 16/29/2 15/5/2 17/8/2 18/51/2
f 18/51/3 17/8/3 43/53/3 41/54/3
f 44/50/11 42/49/11 50/55/11 52/56/11
f 7/57/3 18/58/3 41/59/3 30/60/3
f 30/60/3 41/59/3 42/47/3 29/18/3
f 21/61/7 22/62/7 39/63/7 37/64/7
f 37/64/7 39/63/7 40/23/7 38/42/7
f 9/65/7 21/61/7 37/64/7 34/66/7
f 34/66/7 37/64/7 38/42/7 33/41/7
f 3/67/8 25/68/8 33/69/8 11/70/8
f 25/68/8 26/17/8 34/28/8 33/69/8
f 22/62/7 10/71/7 35/72/7 39/63/7
f 39/63/7 35/72/7 36/24/7 40/23/7
f 8/73/6 4/2/6 28/1/6 31/74/6
f 31/74/6 28/1/6 27/21/6 32/10/6
f 3/67/5 7/57/5 30/60/5 25/68/5
f 25/68/5 30/60/5 29/18/5 26/17/5
f 17/75/3 8/73/3 31/74/3 43/76/3
f 43/76/3 31/74/3 32/10/3 44/9/3
f 2/22/1 27/21/1 35/77/1 10/78/1
f 27/21/1 28/1/1 36/4/1 35/77/1
f 45/79/9 47/80/9 55/81/9 53/82/9
f 43/76/12 44/9/12 52/56/12 51/83/12
f 42/47/13 41/59/13 49/84/13 50/55/13
f 41/54/14 43/53/14 51/83/14 49/84/14
f 45/85/3 46/86/3 50/55/3 49/84/3
f 48/87/3 47/88/3 51/83/3 52/56/3
f 47/88/3 45/85/3 49/84/3 51/83/3
f 46/86/3 48/87/3 52/56/3 50/55/3
f 53/82/15 55/81/15 56/89/15 54/90/15
f 46/91/16 45/92/16 53/82/16 54/90/16
f 48/93/10 46/94/10 54/90/10 56/89/10
f 47/95/17 48/96/17 56/89/17 55/81/17
