# Blender v2.79 (sub 0) OBJ File: 'Table.blend'
# www.blender.org
mtllib Table.mtl
o Cylinder.001_Cylinder.003
v -0.277353 0.704827 -0.625000
v -0.302353 0.754827 -0.625000
v -0.277353 0.704827 -0.675000
v -0.302353 0.754827 -0.675000
v 0.272647 0.704827 -0.625000
v 0.297647 0.754827 -0.625000
v 0.272647 0.704827 -0.675000
v 0.297647 0.754827 -0.675000
v -0.227353 0.704827 -0.675000
v -0.227353 0.704827 -0.625000
v -0.227353 0.704827 0.675000
v -0.227353 0.704827 0.625000
v -0.277353 0.704827 0.675000
v -0.302353 0.754827 0.675000
v -0.277353 0.704827 0.625000
v -0.302353 0.754827 0.625000
v 0.272647 0.704827 0.675000
v 0.297647 0.754827 0.675000
v 0.272647 0.704827 0.625000
v 0.297647 0.754827 0.625000
v -0.300000 0.767500 0.700000
v -0.300000 0.782500 0.700000
v -0.300000 0.767500 -0.700000
v -0.300000 0.782500 -0.700000
v 0.300000 0.767500 0.700000
v 0.300000 0.782500 0.700000
v 0.300000 0.767500 -0.700000
v 0.300000 0.782500 -0.700000
v -0.277353 -0.000467 -0.675000
v -0.277353 -0.000467 -0.625000
v -0.227353 -0.000467 -0.675000
v -0.227353 -0.000467 -0.625000
v 0.272647 -0.000467 -0.625000
v 0.272647 -0.000467 -0.675000
v 0.222647 -0.000467 -0.625000
v 0.272647 -0.000467 0.625000
v 0.222647 -0.000467 0.625000
v 0.222647 -0.000467 -0.675000
v 0.222647 -0.000467 0.675000
v 0.272647 -0.000467 0.675000
v -0.277353 -0.000467 0.675000
v -0.227353 -0.000467 0.675000
v -0.227353 -0.000467 0.625000
v -0.277353 -0.000467 0.625000
v 0.222647 0.704827 0.625000
v 0.222647 0.704827 0.675000
v 0.222647 0.704827 -0.625000
v 0.222647 0.704827 -0.675000
v -0.227353 0.352180 -0.675000
v -0.227353 0.352180 -0.625000
v -0.227353 0.352180 0.675000
v -0.227353 0.352180 0.625000
v -0.227353 0.325857 -0.675000
v -0.227353 0.325857 -0.625000
v -0.227353 0.325857 0.675000
v -0.227353 0.325857 0.625000
v 0.222647 0.352180 -0.675000
v 0.222647 0.352180 -0.625000
v 0.222647 0.352180 0.625000
v 0.222647 0.352180 0.675000
v 0.222647 0.325857 -0.675000
v 0.222647 0.325857 -0.625000
v 0.222647 0.325857 0.625000
v 0.222647 0.325857 0.675000
vt 0.867625 0.042667
vt 0.877370 0.062618
vt 0.859526 0.071335
vt 0.849780 0.051384
vt 0.621205 0.071335
vt 0.631135 0.051475
vt 0.651189 0.049549
vt 0.829921 0.051201
vt 0.603441 0.062453
vt 0.613371 0.042593
vt 0.631513 0.029506
vt 0.621767 0.009556
vt 0.860089 0.009556
vt 0.850158 0.029416
vt 0.830105 0.031342
vt 0.651372 0.029690
vt 0.519632 0.662241
vt 0.009556 0.662241
vt 0.009556 0.417405
vt 0.519632 0.417405
vt 0.957515 0.649664
vt 0.936970 0.649525
vt 0.938941 0.359720
vt 0.959486 0.359860
vt 0.849595 0.681460
vt 0.859525 0.661600
vt 0.877289 0.670481
vt 0.867358 0.690342
vt 0.849216 0.703428
vt 0.858962 0.723379
vt 0.620641 0.723379
vt 0.630571 0.703519
vt 0.650625 0.701593
vt 0.829357 0.703245
vt 0.613105 0.690267
vt 0.603359 0.670317
vt 0.621204 0.661600
vt 0.630950 0.681550
vt 0.829541 0.683386
vt 0.650809 0.681734
vt 0.936689 0.977534
vt 0.916291 0.977376
vt 0.918520 0.689632
vt 0.938919 0.689790
vt 0.868295 0.644574
vt 0.858590 0.644509
vt 0.858591 0.088426
vt 0.868296 0.088492
vt 0.858591 0.082468
vt 0.620270 0.088426
vt 0.620270 0.082468
vt 0.610565 0.088360
vt 0.620269 0.644509
vt 0.610564 0.644443
vt 0.620269 0.650467
vt 0.858590 0.650467
vt 0.877828 0.098487
vt 0.877827 0.644664
vt 0.869264 0.644740
vt 0.868618 0.644741
vt 0.610242 0.088194
vt 0.601032 0.634448
vt 0.601033 0.088271
vt 0.609597 0.088194
vt 0.049306 0.989811
vt 0.028907 0.989653
vt 0.031135 0.701909
vt 0.051534 0.702067
vt 0.957516 0.319905
vt 0.936971 0.319765
vt 0.938941 0.029961
vt 0.959486 0.030100
vt 0.897093 0.977397
vt 0.896940 0.841995
vt 0.897090 0.822607
vt 0.898121 0.689474
vt 0.980031 0.360000
vt 0.979119 0.494086
vt 0.980171 0.505080
vt 0.978058 0.649964
vt 0.896940 0.493527
vt 0.897851 0.359441
vt 0.918396 0.359581
vt 0.917484 0.493667
vt 0.959626 0.339315
vt 0.980171 0.339455
vt 0.917635 0.649565
vt 0.917352 0.513194
vt 0.957086 0.977851
vt 0.959318 0.689948
vt 0.958286 0.823080
vt 0.959320 0.833998
vt 0.979717 0.690106
vt 0.978685 0.823238
vt 0.917485 0.163907
vt 0.896940 0.163767
vt 0.897851 0.029681
vt 0.918396 0.029821
vt 0.917636 0.319805
vt 0.917352 0.183434
vt 0.071933 0.702225
vt 0.070902 0.835358
vt 0.071936 0.846275
vt 0.069702 0.990128
vt 0.092332 0.702383
vt 0.091301 0.835515
vt 0.009709 0.989675
vt 0.009556 0.854272
vt 0.009706 0.834884
vt 0.010737 0.701751
vt 0.978058 0.320204
vt 0.980031 0.030240
vt 0.979119 0.164326
vt 0.980171 0.175320
vt 0.959626 0.009556
vt 0.980170 0.009695
vt 0.031293 0.681510
vt 0.010895 0.681352
vt 0.918678 0.669233
vt 0.898279 0.669075
vt 0.898300 0.319845
vt 0.898016 0.183474
vt 0.979717 0.834315
vt 0.977482 0.978167
vt 0.092332 0.846592
vt 0.090098 0.990444
vt 0.898300 0.649605
vt 0.898016 0.513234
vt 0.040700 0.203925
vt 0.040700 0.193183
vt 0.550776 0.193183
vt 0.550776 0.203925
vt 0.550776 0.387552
vt 0.550776 0.398294
vt 0.040700 0.398294
vt 0.040700 0.387552
vt 0.571179 0.387552
vt 0.571179 0.203925
vt 0.581921 0.203925
vt 0.581921 0.387552
vt 0.009556 0.387552
vt 0.009556 0.203925
vt 0.020297 0.203925
vt 0.020297 0.387552
vt 0.020297 0.009556
vt 0.040700 0.009556
vt 0.550776 0.009556
vt 0.571180 0.009556
vt 0.571179 0.193183
vt 0.020297 0.193183
vn -0.8944 -0.4472 0.0000
vn 0.0000 0.0000 -1.0000
vn 0.8944 -0.4472 0.0000
vn 0.0000 0.0000 1.0000
vn 0.0000 -1.0000 0.0000
vn 1.0000 0.0000 0.0000
vn -1.0000 0.0000 0.0000
vn 0.0000 1.0000 0.0000
vn -0.9832 0.1826 0.0000
vn 0.0000 -0.8919 0.4521
vn 0.9832 -0.1826 0.0000
vn 0.0000 -0.8920 -0.4521
usemtl Material
s off
f 1/1/1 2/2/1 4/3/1 3/4/1
f 3/4/2 4/3/2 8/5/2 7/6/2 48/7/2 9/8/2
f 7/6/3 8/5/3 6/9/3 5/10/3
f 5/11/4 6/12/4 2/13/4 1/14/4 10/15/4 47/16/4
f 6/17/5 20/18/5 16/19/5 2/20/5
f 7/21/6 5/22/6 33/23/6 34/24/6
f 13/25/1 14/26/1 16/27/1 15/28/1
f 15/29/2 16/30/2 20/31/2 19/32/2 45/33/2 12/34/2
f 19/35/3 20/36/3 18/37/3 17/38/3
f 17/38/4 18/37/4 14/26/4 13/25/4 11/39/4 46/40/4
f 1/41/7 3/42/7 29/43/7 30/44/7
f 21/45/7 22/46/7 24/47/7 23/48/7
f 23/49/2 24/47/2 28/50/2 27/51/2
f 27/52/6 28/50/6 26/53/6 25/54/6
f 25/55/4 26/53/4 22/46/4 21/56/4
f 28/50/8 24/47/8 22/46/8 26/53/8
f 4/57/9 2/58/9 16/59/9 14/60/9 21/45/9 23/48/9
f 18/37/10 25/55/10 21/56/10 14/26/10
f 8/61/11 27/52/11 25/54/11 18/62/11 20/63/11 6/64/11
f 4/3/12 23/49/12 27/51/12 8/5/12
f 19/65/6 17/66/6 40/67/6 36/68/6
f 13/69/7 15/70/7 44/71/7 41/72/7
f 29/43/2 3/42/2 9/73/2 49/74/2 53/75/2 31/76/2
f 38/77/2 61/78/2 57/79/2 48/80/2 7/21/2 34/24/2
f 61/81/7 38/82/7 35/83/7 62/84/7
f 34/24/5 33/85/5 35/86/5 38/77/5
f 5/22/4 47/87/4 58/88/4 62/84/4 35/83/4 33/23/4
f 10/89/4 1/41/4 30/44/4 32/90/4 54/91/4 50/92/4
f 54/91/6 32/90/6 31/93/6 53/94/6
f 56/95/6 55/96/6 42/97/6 43/98/6
f 15/70/2 12/99/2 52/100/2 56/95/2 43/98/2 44/71/2
f 36/68/2 37/101/2 63/102/2 59/103/2 45/104/2 19/65/2
f 63/102/7 37/101/7 39/105/7 64/106/7
f 17/66/4 46/107/4 60/108/4 64/109/4 39/110/4 40/67/4
f 45/33/5 46/40/5 11/39/5 12/34/5
f 11/111/4 13/69/4 41/72/4 42/112/4 55/113/4 51/114/4
f 41/72/5 44/115/5 43/116/5 42/112/5
f 36/117/5 40/67/5 39/110/5 37/118/5
f 30/119/5 29/43/5 31/76/5 32/120/5
f 12/99/6 11/121/6 51/122/6 52/100/6
f 10/89/6 50/92/6 49/123/6 9/124/6
f 45/104/7 59/103/7 60/125/7 46/126/7
f 48/127/7 57/128/7 58/88/7 47/87/7
f 59/129/6 63/130/6 62/131/6 58/132/6
f 50/133/7 54/134/7 56/135/7 52/136/7
f 49/137/2 57/138/2 61/139/2 53/140/2
f 55/141/4 64/142/4 60/143/4 51/144/4
f 60/143/5 51/144/5 52/136/5 50/133/5 49/137/5 57/138/5 58/132/5 59/129/5
f 55/145/5 56/146/5 54/147/5 53/148/5 61/149/5 62/131/5 63/130/5 64/150/5
f 48/7/5 47/16/5 10/15/5 9/8/5
