# Blender v2.79 (sub 0) OBJ File: 'Table.blend'
# www.blender.org
mtllib Table.mtl
o Cylinder.001_Cylinder.003
v -0.277353 0.704827 -0.625000
v -0.302353 0.754827 -0.625000
v -0.277353 0.704827 -0.675000
v -0.302353 0.754827 -0.675000
v 0.272647 0.704827 -0.625000
v 0.297647 0.754827 -0.625000
v 0.272647 0.704827 -0.675000
v 0.297647 0.754827 -0.675000
v -0.227353 0.704827 -0.675000
v -0.227353 0.704827 -0.625000
v -0.227353 0.704827 0.675000
v -0.227353 0.704827 0.625000
v -0.277353 0.704827 0.675000
v -0.302353 0.754827 0.675000
v -0.277353 0.704827 0.625000
v -0.302353 0.754827 0.625000
v 0.272647 0.704827 0.675000
v 0.297647 0.754827 0.675000
v 0.272647 0.704827 0.625000
v 0.297647 0.754827 0.625000
v -0.300000 0.767500 0.700000
v -0.300000 0.782500 0.700000
v -0.300000 0.767500 -0.700000
v -0.300000 0.782500 -0.700000
v 0.300000 0.767500 0.700000
v 0.300000 0.782500 0.700000
v 0.300000 0.767500 -0.700000
v 0.300000 0.782500 -0.700000
v -0.277353 -0.000467 -0.675000
v -0.277353 -0.000467 -0.625000
v -0.227353 -0.000467 -0.675000
v -0.227353 -0.000467 -0.625000
v 0.272647 -0.000467 -0.625000
v 0.272647 -0.000467 -0.675000
v 0.222647 -0.000467 -0.625000
v 0.272647 -0.000467 0.625000
v 0.222647 -0.000467 0.625000
v 0.222647 -0.000467 -0.675000
v 0.222647 -0.000467 0.675000
v 0.272647 -0.000467 0.675000
v -0.277353 -0.000467 0.675000
v -0.227353 -0.000467 0.675000
v -0.227353 -0.000467 0.625000
v -0.277353 -0.000467 0.625000
v 0.222647 0.704827 0.625000
v 0.222647 0.704827 0.675000
v 0.222647 0.704827 -0.625000
v 0.222647 0.704827 -0.675000
v -0.227353 0.352180 -0.675000
v -0.227353 0.352180 -0.625000
v -0.227353 0.352180 0.675000
v -0.227353 0.352180 0.625000
v -0.227353 0.325857 -0.675000
v -0.227353 0.325857 -0.625000
v -0.227353 0.325857 0.675000
v -0.227353 0.325857 0.625000
v 0.222647 0.352180 -0.675000
v 0.222647 0.352180 -0.625000
v 0.222647 0.352180 0.625000
v 0.222647 0.352180 0.675000
v 0.222647 0.325857 -0.675000
v 0.222647 0.325857 -0.625000
v 0.222647 0.325857 0.625000
v 0.222647 0.325857 0.675000
vt 0.872948 0.041282
vt 0.883159 0.061704
vt 0.864893 0.070837
vt 0.854682 0.050415
vt 0.619827 0.070837
vt 0.630038 0.050414
vt 0.650462 0.050414
vt 0.834260 0.050415
vt 0.601561 0.061704
vt 0.611772 0.041281
vt 0.630040 0.029992
vt 0.619829 0.009570
vt 0.864895 0.009570
vt 0.854684 0.029993
vt 0.834260 0.029993
vt 0.650462 0.029992
vt 0.520078 0.662822
vt 0.009570 0.662822
vt 0.009570 0.417778
vt 0.520078 0.417778
vt 0.070831 0.990430
vt 0.050411 0.990430
vt 0.050411 0.702383
vt 0.070831 0.702383
vt 0.854681 0.698228
vt 0.864892 0.677806
vt 0.883159 0.686939
vt 0.872948 0.707361
vt 0.854680 0.718650
vt 0.864891 0.739072
vt 0.619825 0.739072
vt 0.630036 0.718650
vt 0.650459 0.718650
vt 0.834258 0.718650
vt 0.611772 0.707361
vt 0.601561 0.686939
vt 0.619827 0.677806
vt 0.630038 0.698228
vt 0.834258 0.698228
vt 0.650459 0.698228
vt 0.943140 0.318053
vt 0.922720 0.318046
vt 0.922819 0.029998
vt 0.943240 0.030005
vt 0.870058 0.660232
vt 0.863931 0.660232
vt 0.863932 0.088411
vt 0.870059 0.088411
vt 0.863932 0.082285
vt 0.618866 0.088411
vt 0.618866 0.082285
vt 0.612739 0.088411
vt 0.618866 0.660231
vt 0.612739 0.660231
vt 0.618865 0.666358
vt 0.863931 0.666358
vt 0.875327 0.098629
vt 0.875327 0.126416
vt 0.875256 0.630012
vt 0.875253 0.650159
vt 0.607544 0.098484
vt 0.607471 0.650014
vt 0.607471 0.622227
vt 0.607542 0.118631
vt 0.943140 0.645677
vt 0.922720 0.645677
vt 0.922720 0.357629
vt 0.943140 0.357628
vt 0.963561 0.973285
vt 0.943140 0.973285
vt 0.943140 0.685238
vt 0.963561 0.685238
vt 0.902300 0.318039
vt 0.902349 0.174016
vt 0.902353 0.163265
vt 0.902399 0.029991
vt 0.091252 0.702383
vt 0.091252 0.835655
vt 0.091252 0.846412
vt 0.091251 0.990430
vt 0.009570 0.835656
vt 0.009570 0.702383
vt 0.029991 0.702383
vt 0.029991 0.835656
vt 0.070831 0.681962
vt 0.091252 0.681962
vt 0.029991 0.990430
vt 0.029991 0.846407
vt 0.963560 0.318060
vt 0.963660 0.030012
vt 0.963614 0.163285
vt 0.963611 0.174043
vt 0.984081 0.030019
vt 0.984035 0.163292
vt 0.922720 0.818511
vt 0.902300 0.818511
vt 0.902300 0.685238
vt 0.922720 0.685238
vt 0.922720 0.973285
vt 0.922720 0.829262
vt 0.963561 0.357628
vt 0.963561 0.490902
vt 0.963561 0.501659
vt 0.963560 0.645677
vt 0.983981 0.357628
vt 0.983981 0.490902
vt 0.902300 0.645677
vt 0.902300 0.501653
vt 0.902300 0.490902
vt 0.902300 0.357629
vt 0.983980 0.973285
vt 0.983981 0.685238
vt 0.983981 0.818511
vt 0.983981 0.829268
vt 0.963561 0.664818
vt 0.983981 0.664818
vt 0.922720 0.337208
vt 0.902300 0.337208
vt 0.922826 0.009577
vt 0.902406 0.009570
vt 0.902300 0.973285
vt 0.902300 0.829262
vt 0.984030 0.174050
vt 0.983980 0.318067
vt 0.983980 0.501659
vt 0.983980 0.645677
vt 0.009570 0.990430
vt 0.009571 0.846407
vt 0.040741 0.204104
vt 0.040741 0.193353
vt 0.551249 0.193353
vt 0.551249 0.204104
vt 0.551249 0.387887
vt 0.551249 0.398637
vt 0.040741 0.398637
vt 0.040741 0.387886
vt 0.571669 0.387887
vt 0.571669 0.204104
vt 0.582420 0.204104
vt 0.582420 0.387887
vt 0.009570 0.387886
vt 0.009570 0.204104
vt 0.020321 0.204104
vt 0.020321 0.387886
vt 0.020321 0.009570
vt 0.040741 0.009570
vt 0.551249 0.009570
vt 0.571669 0.009570
vt 0.571669 0.193353
vt 0.020321 0.193353
vn -0.8944 -0.4472 0.0000
vn 0.0000 0.0000 -1.0000
vn 0.8944 -0.4472 0.0000
vn 0.0000 0.0000 1.0000
vn 0.0000 -1.0000 0.0000
vn 1.0000 0.0000 0.0000
vn -1.0000 0.0000 0.0000
vn 0.0000 1.0000 0.0000
vn -0.9832 0.1826 0.0000
vn 0.0000 -0.8919 0.4521
vn 0.9832 -0.1826 0.0000
vn 0.0000 -0.8920 -0.4521
usemtl Material
s off
f 1/1/1 2/2/1 4/3/1 3/4/1
f 3/4/2 4/3/2 8/5/2 7/6/2 48/7/2 9/8/2
f 7/6/3 8/5/3 6/9/3 5/10/3
f 5/11/4 6/12/4 2/13/4 1/14/4 10/15/4 47/16/4
f 6/17/5 20/18/5 16/19/5 2/20/5
f 7/21/6 5/22/6 33/23/6 34/24/6
f 13/25/1 14/26/1 16/27/1 15/28/1
f 15/29/2 16/30/2 20/31/2 19/32/2 45/33/2 12/34/2
f 19/35/3 20/36/3 18/37/3 17/38/3
f 17/38/4 18/37/4 14/26/4 13/25/4 11/39/4 46/40/4
f 1/41/7 3/42/7 29/43/7 30/44/7
f 21/45/7 22/46/7 24/47/7 23/48/7
f 23/49/2 24/47/2 28/50/2 27/51/2
f 27/52/6 28/50/6 26/53/6 25/54/6
f 25/55/4 26/53/4 22/46/4 21/56/4
f 28/50/8 24/47/8 22/46/8 26/53/8
f 4/57/9 2/58/9 16/59/9 14/60/9 21/45/9 23/48/9
f 18/37/10 25/55/10 21/56/10 14/26/10
f 8/61/11 27/52/11 25/54/11 18/62/11 20/63/11 6/64/11
f 4/3/12 23/49/12 27/51/12 8/5/12
f 19/65/6 17/66/6 40/67/6 36/68/6
f 13/69/7 15/70/7 44/71/7 41/72/7
f 29/43/2 3/42/2 9/73/2 49/74/2 53/75/2 31/76/2
f 38/77/2 61/78/2 57/79/2 48/80/2 7/21/2 34/24/2
f 61/81/7 38/82/7 35/83/7 62/84/7
f 34/24/5 33/85/5 35/86/5 38/77/5
f 5/22/4 47/87/4 58/88/4 62/84/4 35/83/4 33/23/4
f 10/89/4 1/41/4 30/44/4 32/90/4 54/91/4 50/92/4
f 54/91/6 32/90/6 31/93/6 53/94/6
f 56/95/6 55/96/6 42/97/6 43/98/6
f 15/70/2 12/99/2 52/100/2 56/95/2 43/98/2 44/71/2
f 36/68/2 37/101/2 63/102/2 59/103/2 45/104/2 19/65/2
f 63/102/7 37/101/7 39/105/7 64/106/7
f 17/66/4 46/107/4 60/108/4 64/109/4 39/110/4 40/67/4
f 45/33/5 46/40/5 11/39/5 12/34/5
f 11/111/4 13/69/4 41/72/4 42/112/4 55/113/4 51/114/4
f 41/72/5 44/115/5 43/116/5 42/112/5
f 36/117/5 40/67/5 39/110/5 37/118/5
f 30/119/5 29/43/5 31/76/5 32/120/5
f 12/99/6 11/121/6 51/122/6 52/100/6
f 10/89/6 50/92/6 49/123/6 9/124/6
f 45/104/7 59/103/7 60/125/7 46/126/7
f 48/127/7 57/128/7 58/88/7 47/87/7
f 59/129/6 63/130/6 62/131/6 58/132/6
f 50/133/7 54/134/7 56/135/7 52/136/7
f 49/137/2 57/138/2 61/139/2 53/140/2
f 55/141/4 64/142/4 60/143/4 51/144/4
f 60/143/5 51/144/5 52/136/5 50/133/5 49/137/5 57/138/5 58/132/5 59/129/5
f 55/145/5 56/146/5 54/147/5 53/148/5 61/149/5 62/131/5 63/130/5 64/150/5
f 48/7/5 47/16/5 10/15/5 9/8/5
