# Blender v2.78 (sub 0) OBJ File: 'vial.blend'
# www.blender.org
o Cube
v -0.000000 0.159037 -0.022267
v -0.008521 0.159037 -0.020572
v -0.015745 0.159037 -0.015745
v -0.020572 0.159037 -0.008521
v -0.022267 0.159037 0.000000
v -0.020572 0.159037 0.008521
v -0.015745 0.159037 0.015745
v -0.008521 0.159037 0.020572
v -0.000000 0.159037 0.022267
v 0.008521 0.159037 0.020572
v 0.015745 0.159037 0.015745
v 0.020572 0.159037 0.008521
v 0.022267 0.159037 0.000000
v 0.020572 0.159037 -0.008521
v 0.015745 0.159037 -0.015745
v 0.008521 0.159037 -0.020572
v -0.000000 0.150000 -0.016000
v -0.006123 0.150000 -0.014782
v -0.011314 0.150000 -0.011314
v -0.014782 0.150000 -0.006123
v -0.016000 0.150000 0.000000
v -0.014782 0.150000 0.006123
v -0.011314 0.150000 0.011314
v -0.006123 0.150000 0.014782
v -0.000000 0.150000 0.016000
v 0.006123 0.150000 0.014782
v 0.011314 0.150000 0.011314
v 0.014782 0.150000 0.006123
v 0.016000 0.150000 0.000000
v 0.014782 0.150000 -0.006123
v 0.011314 0.150000 -0.011314
v 0.006123 0.150000 -0.014782
v -0.000000 0.040000 -0.016000
v -0.006123 0.040000 -0.014782
v -0.011314 0.040000 -0.011314
v -0.014782 0.040000 -0.006123
v -0.016000 0.040000 0.000000
v -0.014782 0.040000 0.006123
v -0.011314 0.040000 0.011314
v -0.006123 0.040000 0.014782
v -0.000000 0.040000 0.016000
v 0.006123 0.040000 0.014782
v 0.011314 0.040000 0.011314
v 0.014782 0.040000 0.006123
v 0.016000 0.040000 0.000000
v 0.014782 0.040000 -0.006123
v 0.011314 0.040000 -0.011314
v 0.006123 0.040000 -0.014782
v -0.000000 0.029421 0.000000
v -0.000000 0.030711 -0.005859
v -0.002242 0.030711 -0.005413
v -0.004143 0.030711 -0.004143
v -0.005413 0.030711 -0.002242
v -0.005859 0.030711 0.000000
v -0.005413 0.030711 0.002242
v -0.004143 0.030711 0.004143
v -0.002242 0.030711 0.005413
v -0.000000 0.030711 0.005859
v 0.002242 0.030711 0.005413
v 0.004143 0.030711 0.004143
v 0.005413 0.030711 0.002242
v 0.005859 0.030711 0.000000
v 0.005413 0.030711 -0.002242
v 0.004143 0.030711 -0.004143
v 0.002242 0.030711 -0.005413
v 0.004870 0.034516 -0.011757
v 0.008998 0.034516 -0.008998
v 0.011757 0.034516 -0.004870
v 0.012725 0.034516 0.000000
v 0.011757 0.034516 0.004870
v 0.008998 0.034516 0.008998
v 0.004870 0.034516 0.011757
v -0.000000 0.034516 0.012725
v -0.004870 0.034516 0.011757
v -0.008998 0.034516 0.008998
v -0.011757 0.034516 0.004870
v -0.012725 0.034516 0.000000
v -0.011757 0.034516 -0.004870
v -0.008998 0.034516 -0.008998
v -0.004870 0.034516 -0.011757
v -0.000000 0.034516 -0.012725
v -0.000000 0.040701 -0.014636
v -0.005601 0.040701 -0.013522
v -0.010349 0.040701 -0.010349
v -0.013522 0.040701 -0.005601
v -0.014636 0.040701 0.000000
v -0.013522 0.040701 0.005601
v -0.010349 0.040701 0.010349
v -0.005601 0.040701 0.013522
v -0.000000 0.040701 0.014636
v 0.005601 0.040701 0.013522
v 0.010349 0.040701 0.010349
v 0.013522 0.040701 0.005601
v 0.014636 0.040701 0.000000
v 0.013522 0.040701 -0.005601
v 0.010349 0.040701 -0.010349
v 0.005601 0.040701 -0.013522
v -0.000000 0.031024 0.000000
v -0.000000 0.032204 -0.005359
v -0.002051 0.032204 -0.004951
v -0.003790 0.032204 -0.003790
v -0.004951 0.032204 -0.002051
v -0.005359 0.032204 0.000000
v -0.004951 0.032204 0.002051
v -0.003790 0.032204 0.003790
v -0.002051 0.032204 0.004951
v -0.000000 0.032204 0.005359
v 0.002051 0.032204 0.004951
v 0.003790 0.032204 0.003790
v 0.004951 0.032204 0.002051
v 0.005359 0.032204 0.000000
v 0.004951 0.032204 -0.002051
v 0.003790 0.032204 -0.003790
v 0.002051 0.032204 -0.004951
v 0.004455 0.035685 -0.010754
v 0.008231 0.035685 -0.008231
v 0.010754 0.035685 -0.004455
v 0.011640 0.035685 0.000000
v 0.010754 0.035685 0.004455
v 0.008231 0.035685 0.008231
v 0.004455 0.035685 0.010754
v -0.000000 0.035685 0.011640
v -0.004455 0.035685 0.010754
v -0.008231 0.035685 0.008231
v -0.010754 0.035685 0.004455
v -0.011640 0.035685 0.000000
v -0.010754 0.035685 -0.004455
v -0.008231 0.035685 -0.008231
v -0.004455 0.035685 -0.010754
v -0.000000 0.035685 -0.011640
v -0.010349 0.090022 -0.010349
v -0.005601 0.091811 0.013522
v 0.010349 0.097822 0.010349
v 0.005601 0.096033 -0.013522
v 0.013522 0.099018 -0.005601
v -0.000000 0.093922 0.014636
v -0.010349 0.090022 0.010349
v 0.014636 0.099437 0.000000
v -0.000000 0.093922 -0.014636
v -0.013522 0.088826 0.005601
v -0.013522 0.088826 -0.005601
v -0.005601 0.091811 -0.013522
v 0.005601 0.096033 0.013522
v 0.010349 0.097822 -0.010349
v 0.013522 0.099018 0.005601
v -0.014636 0.088406 0.000000
v 0.011314 0.144808 0.011314
v 0.014782 0.144808 0.006123
v -0.014782 0.144808 -0.006123
v -0.016000 0.144808 0.000000
v 0.016000 0.144808 0.000000
v -0.014782 0.144808 0.006123
v 0.014782 0.144808 -0.006123
v -0.011314 0.144808 0.011314
v 0.011314 0.144808 -0.011314
v -0.006123 0.144808 0.014782
v 0.006123 0.144808 -0.014782
v -0.000000 0.144808 0.016000
v -0.000000 0.144808 -0.016000
v -0.006123 0.144808 -0.014782
v 0.006123 0.144808 0.014782
v -0.011314 0.144808 -0.011314
v 0.011314 0.045375 0.011314
v -0.014782 0.045375 -0.006123
v -0.000000 0.045375 -0.016000
v 0.014782 0.045375 0.006123
v -0.016000 0.045375 0.000000
v 0.016000 0.045375 0.000000
v -0.014782 0.045375 0.006123
v 0.014782 0.045375 -0.006123
v -0.011314 0.045375 0.011314
v 0.011314 0.045375 -0.011314
v -0.006123 0.045375 0.014782
v 0.006123 0.045375 -0.014782
v -0.000000 0.045375 0.016000
v -0.006123 0.045375 -0.014782
v 0.006123 0.045375 0.014782
v -0.011314 0.045375 -0.011314
v -0.018049 0.155122 0.000000
v -0.016675 0.155122 0.006907
v 0.018049 0.155122 0.000000
v 0.016675 0.155122 -0.006907
v -0.012762 0.155122 0.012762
v 0.012762 0.155122 -0.012762
v -0.006907 0.155122 0.016675
v 0.006907 0.155122 -0.016675
v -0.000000 0.155122 0.018049
v -0.000000 0.155122 -0.018049
v -0.006907 0.155122 -0.016675
v 0.006907 0.155122 0.016675
v -0.012762 0.155122 -0.012762
v 0.012762 0.155122 0.012762
v -0.016675 0.155122 -0.006907
v 0.016675 0.155122 0.006907
v 0.013522 0.099018 0.005601
v 0.014636 0.099437 0.000000
v -0.000000 0.093922 -0.014636
v 0.005601 0.096033 -0.013522
v -0.010349 0.090022 -0.010349
v -0.005601 0.091811 -0.013522
v 0.010349 0.097822 -0.010349
v 0.013522 0.099018 -0.005601
v 0.010349 0.097822 0.010349
v 0.005601 0.096033 0.013522
v -0.014636 0.088406 0.000000
v -0.013522 0.088826 0.005601
v -0.000000 0.093922 0.014636
v -0.013522 0.088826 -0.005601
v -0.010349 0.090022 0.010349
v -0.005601 0.091811 0.013522
vt 0.3322 0.6361
vt 0.2968 0.6361
vt 0.2975 0.6067
vt 0.3326 0.6066
vt 0.0502 0.6184
vt 0.0195 0.6089
vt 0.0266 0.5860
vt 0.0564 0.5918
vt 0.3679 0.6358
vt 0.3679 0.6061
vt 0.0843 0.6249
vt 0.0891 0.5967
vt 0.4039 0.6352
vt 0.4034 0.6051
vt 0.1195 0.6293
vt 0.1230 0.6004
vt 0.4404 0.6338
vt 0.4391 0.6034
vt 0.1907 0.6340
vt 0.1551 0.6322
vt 0.1576 0.6030
vt 0.1925 0.6047
vt 0.4774 0.6312
vt 0.4749 0.6007
vt 0.2261 0.6351
vt 0.2274 0.6058
vt 0.5148 0.6266
vt 0.5103 0.5964
vt 0.2615 0.6358
vt 0.2624 0.6064
vt 0.5517 0.6188
vt 0.5446 0.5901
vt 0.5857 0.6065
vt 0.5758 0.5821
vt 0.5243 0.0375
vt 0.4915 0.0383
vt 0.4908 0.0101
vt 0.5236 0.0093
vt 0.2940 0.0417
vt 0.2611 0.0420
vt 0.2608 0.0137
vt 0.2937 0.0134
vt 0.5571 0.0367
vt 0.5564 0.0085
vt 0.3269 0.0414
vt 0.3266 0.0130
vt 0.0642 0.0423
vt 0.0315 0.0422
vt 0.0316 0.0140
vt 0.0643 0.0141
vt 0.3599 0.0409
vt 0.3594 0.0126
vt 0.0969 0.0424
vt 0.0969 0.0142
vt 0.3928 0.0404
vt 0.3923 0.0120
vt 0.1297 0.0424
vt 0.1297 0.0142
vt 0.4257 0.0398
vt 0.4252 0.0114
vt 0.1953 0.0424
vt 0.1625 0.0424
vt 0.1624 0.0142
vt 0.1952 0.0141
vt 0.4586 0.0391
vt 0.4580 0.0108
vt 0.2282 0.0422
vt 0.2280 0.0140
vt 0.7917 0.7534
vt 0.8237 0.7514
vt 0.8209 0.7821
vt 0.7983 0.7833
vt 0.8552 0.7600
vt 0.8425 0.7882
vt 0.8684 0.8843
vt 0.8523 0.9005
vt 0.8319 0.8713
vt 0.8394 0.8641
vt 0.8117 0.8763
vt 0.8014 0.8732
vt 0.8157 0.8468
vt 0.8715 0.9261
vt 0.8410 0.9411
vt 0.8316 0.9103
vt 0.7661 0.8933
vt 0.7513 0.8738
vt 0.7866 0.8570
vt 0.7927 0.8665
vt 0.7427 0.8491
vt 0.7842 0.8454
vt 0.8276 0.8201
vt 0.8175 0.8175
vt 0.8223 0.8756
vt 0.6933 0.1307
vt 0.6893 0.1194
vt 0.7212 0.1131
vt 0.7221 0.0812
vt 0.7332 0.0835
vt 0.7109 0.0830
vt 0.7498 0.0985
vt 0.7533 0.1094
vt 0.7427 0.1864
vt 0.7149 0.1928
vt 0.7159 0.1472
vt 0.7287 0.1460
vt 0.6501 0.1244
vt 0.6515 0.0997
vt 0.6895 0.1077
vt 0.8266 0.1344
vt 0.8141 0.1699
vt 0.7826 0.1527
vt 0.7916 0.1288
vt 0.6607 0.0770
vt 0.6936 0.0970
vt 0.7658 0.1726
vt 0.7398 0.1405
vt 0.6185 0.0929
vt 0.6316 0.0598
vt 0.7428 0.0895
vt 0.6564 0.1487
vt 0.8140 0.0620
vt 0.8266 0.0970
vt 0.7920 0.1035
vt 0.7839 0.0798
vt 0.7527 0.1210
vt 0.7481 0.1318
vt 0.7682 0.0604
vt 0.6168 0.1280
vt 0.6769 0.0586
vt 0.6984 0.0468
vt 0.7010 0.0884
vt 0.7904 0.0336
vt 0.7227 0.0429
vt 0.7470 0.0476
vt 0.7225 0.0085
vt 0.7585 0.0150
vt 0.6702 0.1711
vt 0.7012 0.1405
vt 0.6254 0.1615
vt 0.6419 0.1909
vt 0.7585 0.2203
vt 0.7216 0.2314
vt 0.6865 0.0147
vt 0.7904 0.1994
vt 0.6550 0.0326
vt 0.8448 0.8444
vt 0.8438 0.8547
vt 0.8070 0.9448
vt 0.7735 0.9370
vt 0.7859 0.9066
vt 0.8085 0.9124
vt 0.6909 0.8567
vt 0.6824 0.8859
vt 0.6626 0.9097
vt 0.6345 0.9245
vt 0.6024 0.9281
vt 0.5711 0.9199
vt 0.5455 0.9011
vt 0.5294 0.8746
vt 0.5253 0.8445
vt 0.5338 0.8153
vt 0.5536 0.7915
vt 0.5817 0.7767
vt 0.6138 0.7731
vt 0.6451 0.7813
vt 0.6707 0.8001
vt 0.6868 0.8266
vt 0.7969 0.8232
vt 0.8068 0.8185
vt 0.8421 0.8345
vt 0.7769 0.7915
vt 0.8608 0.8011
vt 0.8738 0.8194
vt 0.8362 0.8260
vt 0.8950 0.9017
vt 0.8797 0.8411
vt 0.8779 0.8637
vt 0.9110 0.8374
vt 0.9087 0.8709
vt 0.7579 0.8063
vt 0.7888 0.8314
vt 0.7621 0.7646
vt 0.7370 0.7826
vt 0.7220 0.8915
vt 0.7083 0.8591
vt 0.9017 0.8054
vt 0.7442 0.9185
vt 0.8823 0.7785
vt 0.4936 0.9915
vt 0.4633 0.9893
vt 0.4633 0.6796
vt 0.4937 0.6796
vt 0.1298 0.9622
vt 0.0995 0.9734
vt 0.0995 0.6796
vt 0.1298 0.6796
vt 0.1904 0.9415
vt 0.1601 0.9510
vt 0.1601 0.6796
vt 0.1904 0.6796
vt 0.0691 0.9829
vt 0.0388 0.9893
vt 0.0388 0.6796
vt 0.0691 0.6796
vt 0.4330 0.9829
vt 0.4330 0.6796
vt 0.4027 0.9734
vt 0.4027 0.6796
vt 0.2814 0.9352
vt 0.2511 0.9329
vt 0.2511 0.6796
vt 0.2814 0.6796
vt 0.3724 0.9622
vt 0.3724 0.6796
vt 0.2207 0.9352
vt 0.2207 0.6796
vt 0.3117 0.9415
vt 0.3117 0.6796
vt 0.0085 0.9915
vt 0.0085 0.6796
vt 0.3420 0.9510
vt 0.3420 0.6796
vt 0.2283 0.5769
vt 0.2629 0.5774
vt 0.4722 0.5713
vt 0.5065 0.5677
vt 0.1938 0.5759
vt 0.4374 0.5739
vt 0.1257 0.5721
vt 0.1596 0.5743
vt 0.4024 0.5756
vt 0.0926 0.5691
vt 0.3675 0.5767
vt 0.0603 0.5655
vt 0.3325 0.5774
vt 0.0293 0.5621
vt 0.2977 0.5776
vt 0.5397 0.5631
vt 0.5710 0.5581
vt 0.5998 0.6313
vt 0.5597 0.6471
vt 0.2959 0.6625
vt 0.2604 0.6622
vt 0.5190 0.6553
vt 0.2247 0.6616
vt 0.4793 0.6595
vt 0.1888 0.6606
vt 0.4410 0.6615
vt 0.1526 0.6588
vt 0.1159 0.6559
vt 0.4038 0.6624
vt 0.0792 0.6509
vt 0.3674 0.6626
vt 0.0429 0.6430
vt 0.3315 0.6626
vt 0.0085 0.6305
vn -0.7533 -0.5790 0.3120
vn -0.8153 -0.5790 0.0000
vn -0.9810 -0.1936 0.0000
vn -0.9064 -0.1936 0.3754
vn 0.7533 -0.5790 -0.3120
vn 0.8153 -0.5790 0.0000
vn 0.9810 -0.1936 0.0000
vn 0.9064 -0.1936 -0.3754
vn -0.5765 -0.5790 0.5765
vn -0.6937 -0.1936 0.6937
vn 0.5765 -0.5790 -0.5765
vn 0.6937 -0.1936 -0.6937
vn -0.3120 -0.5790 0.7533
vn -0.3754 -0.1936 0.9064
vn 0.3120 -0.5790 -0.7533
vn 0.3754 -0.1936 -0.9064
vn 0.0000 -0.5790 0.8153
vn 0.0000 -0.1936 0.9810
vn -0.3120 -0.5790 -0.7533
vn 0.0000 -0.5790 -0.8153
vn 0.0000 -0.1936 -0.9810
vn -0.3754 -0.1936 -0.9064
vn 0.3120 -0.5790 0.7533
vn 0.3754 -0.1936 0.9064
vn -0.5765 -0.5790 -0.5765
vn -0.6937 -0.1936 -0.6937
vn 0.5765 -0.5790 0.5765
vn 0.6937 -0.1936 0.6937
vn -0.7533 -0.5790 -0.3120
vn -0.9064 -0.1936 -0.3754
vn 0.7533 -0.5790 0.3120
vn 0.9064 -0.1936 0.3754
vn 0.9239 0.0000 0.3827
vn 0.7071 0.0000 0.7071
vn 0.6832 -0.2578 0.6832
vn 0.8926 -0.2578 0.3697
vn -1.0000 0.0000 0.0000
vn -0.9239 0.0000 -0.3827
vn -0.8926 -0.2578 -0.3697
vn -0.9662 -0.2578 0.0000
vn 1.0000 0.0000 0.0000
vn 0.9662 -0.2578 0.0000
vn -0.9239 0.0000 0.3827
vn -0.8926 -0.2578 0.3697
vn 0.9239 0.0000 -0.3827
vn 0.8926 -0.2578 -0.3697
vn -0.7071 0.0000 0.7071
vn -0.6832 -0.2578 0.6832
vn 0.7071 0.0000 -0.7071
vn 0.6832 -0.2578 -0.6832
vn -0.3827 0.0000 0.9239
vn -0.3697 -0.2578 0.8926
vn 0.3827 0.0000 -0.9239
vn 0.3697 -0.2578 -0.8926
vn 0.0000 0.0000 1.0000
vn 0.0000 -0.2578 0.9662
vn -0.3827 0.0000 -0.9239
vn 0.0000 0.0000 -1.0000
vn 0.0000 -0.2578 -0.9662
vn -0.3697 -0.2578 -0.8926
vn 0.3827 0.0000 0.9239
vn 0.3697 -0.2578 0.8926
vn -0.7071 0.0000 -0.7071
vn -0.6832 -0.2578 -0.6832
vn 0.2723 -0.7026 0.6574
vn 0.5032 -0.7026 0.5032
vn 0.0000 -0.7026 0.7116
vn -0.6574 -0.7026 -0.2723
vn -0.5032 -0.7026 -0.5032
vn -0.2610 -0.9294 -0.2610
vn -0.3410 -0.9294 -0.1412
vn 0.0000 -0.9294 -0.3691
vn 0.1412 -0.9294 -0.3410
vn 0.0000 -1.0000 0.0000
vn -0.2723 -0.7026 -0.6574
vn 0.5032 -0.7026 -0.5032
vn 0.6574 -0.7026 -0.2723
vn 0.3410 -0.9294 -0.1412
vn 0.2610 -0.9294 -0.2610
vn 0.7116 -0.7026 0.0000
vn 0.3691 -0.9294 0.0000
vn 0.0000 -0.9294 0.3691
vn 0.1412 -0.9294 0.3410
vn -0.1412 -0.9294 -0.3410
vn 0.3410 -0.9294 0.1412
vn 0.2610 -0.9294 0.2610
vn -0.3410 -0.9294 0.1412
vn -0.3691 -0.9294 0.0000
vn -0.2610 -0.9294 0.2610
vn 0.2723 -0.7026 -0.6574
vn 0.0000 -0.7026 -0.7116
vn 0.6574 -0.7026 0.2723
vn -0.2723 -0.7026 0.6574
vn -0.5032 -0.7026 0.5032
vn -0.1412 -0.9294 0.3410
vn -0.6574 -0.7026 0.2723
vn -0.7116 -0.7026 0.0000
vn -0.3526 0.9357 0.0000
vn 0.9308 0.0000 0.3655
vn 0.0448 0.0000 -0.9990
vn 0.4214 0.0000 -0.9069
vn -0.6846 0.0000 -0.7289
vn -0.3445 0.0000 -0.9387
vn 0.7302 0.0000 -0.6832
vn 0.9308 0.0000 -0.3655
vn 0.7302 0.0000 0.6832
vn 0.4214 0.0000 0.9069
vn -0.9172 0.0000 0.3983
vn 0.0448 0.0000 0.9990
vn -0.9172 0.0000 -0.3983
vn -0.6846 0.0000 0.7289
vn -0.3445 0.0000 0.9387
vn 0.6803 -0.7329 0.0000
vn 0.6285 -0.7329 0.2603
vn -0.6803 -0.7329 0.0000
vn -0.6285 -0.7329 -0.2603
vn 0.4811 -0.7329 0.4811
vn -0.4811 -0.7329 -0.4811
vn 0.2603 -0.7329 0.6285
vn -0.2603 -0.7329 -0.6285
vn 0.0000 -0.7329 0.6803
vn 0.0000 -0.7329 -0.6803
vn 0.2603 -0.7329 -0.6285
vn -0.2603 -0.7329 0.6285
vn 0.4811 -0.7329 -0.4811
vn -0.4811 -0.7329 0.4811
vn 0.6285 -0.7329 -0.2603
vn -0.6285 -0.7329 0.2603
s 1
f 180/1/1 179/2/2 21/3/3 22/4/4
f 182/5/5 181/6/6 29/7/7 30/8/8
f 183/9/9 180/1/1 22/4/4 23/10/10
f 184/11/11 182/5/5 30/8/8 31/12/12
f 185/13/13 183/9/9 23/10/10 24/14/14
f 186/15/15 184/11/11 31/12/12 32/16/16
f 187/17/17 185/13/13 24/14/14 25/18/18
f 189/19/19 188/20/20 17/21/21 18/22/22
f 188/20/20 186/15/15 32/16/16 17/21/21
f 190/23/23 187/17/17 25/18/18 26/24/24
f 191/25/25 189/19/19 18/22/22 19/26/26
f 192/27/27 190/23/23 26/24/24 27/28/28
f 193/29/29 191/25/25 19/26/26 20/30/30
f 194/31/31 192/27/27 27/28/28 28/32/32
f 179/2/2 193/29/29 20/30/30 21/3/3
f 181/33/6 194/31/31 28/32/32 29/34/7
f 166/35/33 163/36/34 43/37/35 44/38/36
f 167/39/37 164/40/38 36/41/39 37/42/40
f 168/43/41 166/35/33 44/38/36 45/44/42
f 169/45/43 167/39/37 37/42/40 38/46/44
f 170/47/45 168/48/41 45/49/42 46/50/46
f 171/51/47 169/45/43 38/46/44 39/52/48
f 172/53/49 170/47/45 46/50/46 47/54/50
f 173/55/51 171/51/47 39/52/48 40/56/52
f 174/57/53 172/53/49 47/54/50 48/58/54
f 175/59/55 173/55/51 40/56/52 41/60/56
f 176/61/57 165/62/58 33/63/59 34/64/60
f 165/62/58 174/57/53 48/58/54 33/63/59
f 177/65/61 175/59/55 41/60/56 42/66/62
f 178/67/63 176/61/57 34/64/60 35/68/64
f 163/36/34 177/65/61 42/66/62 43/37/35
f 164/40/38 178/67/63 35/68/64 36/41/39
f 92/69/35 91/70/62 121/71/65 120/72/66
f 91/70/62 90/73/56 122/74/67 121/71/65
f 127/75/68 128/76/69 101/77/70 102/78/71
f 99/79/72 114/80/73 98/81/74
f 84/82/64 83/83/60 129/84/75 128/76/69
f 116/85/76 117/86/77 112/87/78 113/88/79
f 117/86/77 118/89/80 111/90/81 112/87/78
f 121/71/65 122/74/67 107/91/82 108/92/83
f 101/77/70 100/93/84 98/81/74
f 61/94/85 60/95/86 49/96/74
f 55/97/87 54/98/88 49/96/74
f 56/99/89 55/97/87 49/96/74
f 52/100/70 51/101/84 49/96/74
f 68/102/77 69/103/80 62/104/81 63/105/78
f 71/106/66 72/107/65 59/108/83 60/95/86
f 33/109/59 48/110/54 66/111/90 81/112/91
f 72/107/65 73/113/67 58/114/82 59/108/83
f 67/115/76 68/102/77 63/105/78 64/116/79
f 42/117/62 41/118/56 73/113/67 72/107/65
f 54/98/88 53/119/71 49/96/74
f 70/120/92 71/106/66 60/95/86 61/94/85
f 35/121/64 34/122/60 80/123/75 79/124/69
f 50/125/72 65/126/73 49/96/74
f 78/127/68 79/124/69 52/100/70 53/119/71
f 43/128/35 42/117/62 72/107/65 71/106/66
f 60/95/86 59/108/83 49/96/74
f 74/129/93 75/130/94 56/99/89 57/131/95
f 36/132/39 35/121/64 79/124/69 78/127/68
f 76/133/96 77/134/97 54/98/88 55/97/87
f 80/123/75 81/112/91 50/125/72 51/101/84
f 38/135/44 37/136/40 77/134/97 76/133/96
f 69/137/80 70/120/92 61/94/85 62/138/81
f 65/126/73 64/116/79 49/96/74
f 44/139/36 43/128/35 71/106/66 70/120/92
f 58/114/82 57/131/95 49/96/74
f 62/138/81 61/94/85 49/96/74
f 37/136/40 36/132/39 78/127/68 77/134/97
f 63/105/78 62/104/81 49/96/74
f 59/108/83 58/114/82 49/96/74
f 45/140/42 44/139/36 70/120/92 69/137/80
f 51/101/84 50/125/72 49/96/74
f 46/141/46 45/142/42 69/103/80 68/102/77
f 75/130/94 76/133/96 55/97/87 56/99/89
f 53/119/71 52/100/70 49/96/74
f 39/143/48 38/135/44 76/133/96 75/130/94
f 57/131/95 56/99/89 49/96/74
f 47/144/50 46/141/46 68/102/77 67/115/76
f 64/116/79 63/105/78 49/96/74
f 40/145/52 39/143/48 75/130/94 74/129/93
f 104/146/87 103/147/88 98/81/74
f 77/134/97 78/127/68 53/119/71 54/98/88
f 82/148/59 97/149/54 115/150/90 130/151/91
f 81/112/91 66/111/90 65/126/73 50/125/72
f 34/122/60 33/109/59 81/112/91 80/123/75
f 41/118/56 40/145/52 74/129/93 73/113/67
f 138/152/98 135/153/98 144/154/98 134/155/98 139/156/98 142/157/98 131/158/98 141/159/98 146/160/98 140/161/98 137/162/98 132/163/98 136/164/98 143/165/98 133/166/98 145/167/98
f 48/110/54 47/144/50 67/115/76 66/111/90
f 110/168/85 109/169/86 98/81/74
f 79/124/69 80/123/75 51/101/84 52/100/70
f 105/170/89 104/146/87 98/81/74
f 73/113/67 74/129/93 57/131/95 58/114/82
f 119/171/92 120/72/66 109/169/86 110/168/85
f 120/72/66 121/71/65 108/92/83 109/169/86
f 66/111/90 67/115/76 64/116/79 65/126/73
f 103/147/88 102/78/71 98/81/74
f 109/169/86 108/92/83 98/81/74
f 123/172/93 124/173/94 105/170/89 106/174/95
f 85/175/39 84/82/64 128/76/69 127/75/68
f 125/176/96 126/177/97 103/147/88 104/146/87
f 129/84/75 130/151/91 99/79/72 100/93/84
f 87/178/44 86/179/40 126/177/97 125/176/96
f 118/180/80 119/171/92 110/168/85 111/181/81
f 114/80/73 113/88/79 98/81/74
f 93/182/36 92/69/35 120/72/66 119/171/92
f 107/91/82 106/174/95 98/81/74
f 111/181/81 110/168/85 98/81/74
f 86/179/40 85/175/39 127/75/68 126/177/97
f 112/87/78 111/90/81 98/81/74
f 108/92/83 107/91/82 98/81/74
f 94/183/42 93/182/36 119/171/92 118/180/80
f 100/93/84 99/79/72 98/81/74
f 95/184/46 94/185/42 118/89/80 117/86/77
f 124/173/94 125/176/96 104/146/87 105/170/89
f 102/78/71 101/77/70 98/81/74
f 88/186/48 87/178/44 125/176/96 124/173/94
f 106/174/95 105/170/89 98/81/74
f 96/187/50 95/184/46 117/86/77 116/85/76
f 113/88/79 112/87/78 98/81/74
f 89/188/52 88/186/48 124/173/94 123/172/93
f 126/177/97 127/75/68 102/78/71 103/147/88
f 130/151/91 115/150/90 114/80/73 99/79/72
f 83/83/60 82/148/59 130/151/91 129/84/75
f 90/73/56 89/188/52 123/172/93 122/74/67
f 97/149/54 96/187/50 116/85/76 115/150/90
f 128/76/69 129/84/75 100/93/84 101/77/70
f 122/74/67 123/172/93 106/174/95 107/91/82
f 115/150/90 116/85/76 113/88/79 114/80/73
f 196/189/41 195/190/99 93/191/36 94/192/42
f 197/193/100 198/194/101 97/195/54 82/196/59
f 199/197/102 200/198/103 83/199/60 84/200/64
f 201/201/104 202/202/105 95/203/46 96/204/50
f 200/198/103 197/193/100 82/196/59 83/199/60
f 195/190/99 203/205/106 92/206/35 93/191/36
f 203/205/106 204/207/107 91/208/62 92/206/35
f 206/209/108 205/210/37 86/211/40 87/212/44
f 204/207/107 207/213/109 90/214/56 91/208/62
f 205/210/37 208/215/110 85/216/39 86/211/40
f 209/217/111 206/209/108 87/212/44 88/218/48
f 198/194/101 201/201/104 96/204/50 97/195/54
f 208/215/110 199/197/102 84/200/64 85/216/39
f 202/202/105 196/219/41 94/220/42 95/203/46
f 207/213/109 210/221/112 89/222/52 90/214/56
f 210/221/112 209/217/111 88/218/48 89/222/52
f 20/30/30 19/26/26 162/223/63 149/224/38
f 27/28/28 26/24/24 161/225/61 147/226/34
f 19/26/26 18/22/22 160/227/57 162/223/63
f 26/24/24 25/18/18 158/228/55 161/225/61
f 17/21/21 32/16/16 157/229/53 159/230/58
f 18/22/22 17/21/21 159/230/58 160/227/57
f 25/18/18 24/14/14 156/231/51 158/228/55
f 32/16/16 31/12/12 155/232/49 157/229/53
f 24/14/14 23/10/10 154/233/47 156/231/51
f 31/12/12 30/8/8 153/234/45 155/232/49
f 23/10/10 22/4/4 152/235/43 154/233/47
f 30/8/8 29/7/7 151/236/41 153/234/45
f 22/4/4 21/3/3 150/237/37 152/235/43
f 29/34/7 28/32/32 148/238/33 151/239/41
f 21/3/3 20/30/30 149/224/38 150/237/37
f 28/32/32 27/28/28 147/226/34 148/238/33
f 149/224/38 162/223/63 178/67/63 164/40/38
f 147/226/34 161/225/61 177/65/61 163/36/34
f 162/223/63 160/227/57 176/61/57 178/67/63
f 161/225/61 158/228/55 175/59/55 177/65/61
f 159/230/58 157/229/53 174/57/53 165/62/58
f 160/227/57 159/230/58 165/62/58 176/61/57
f 158/228/55 156/231/51 173/55/51 175/59/55
f 157/229/53 155/232/49 172/53/49 174/57/53
f 156/231/51 154/233/47 171/51/47 173/55/51
f 155/232/49 153/234/45 170/47/45 172/53/49
f 154/233/47 152/235/43 169/45/43 171/51/47
f 153/234/45 151/236/41 168/48/41 170/47/45
f 152/235/43 150/237/37 167/39/37 169/45/43
f 151/239/41 148/238/33 166/35/33 168/43/41
f 150/237/37 149/224/38 164/40/38 167/39/37
f 148/238/33 147/226/34 163/36/34 166/35/33
f 13/240/113 12/241/114 194/31/31 181/33/6
f 5/242/115 4/243/116 193/29/29 179/2/2
f 12/241/114 11/244/117 192/27/27 194/31/31
f 4/243/116 3/245/118 191/25/25 193/29/29
f 11/244/117 10/246/119 190/23/23 192/27/27
f 3/245/118 2/247/120 189/19/19 191/25/25
f 10/246/119 9/248/121 187/17/17 190/23/23
f 1/249/122 16/250/123 186/15/15 188/20/20
f 2/247/120 1/249/122 188/20/20 189/19/19
f 9/248/121 8/251/124 185/13/13 187/17/17
f 16/250/123 15/252/125 184/11/11 186/15/15
f 8/251/124 7/253/126 183/9/9 185/13/13
f 15/252/125 14/254/127 182/5/5 184/11/11
f 7/253/126 6/255/128 180/1/1 183/9/9
f 14/254/127 13/256/113 181/6/6 182/5/5
f 6/255/128 5/242/115 179/2/2 180/1/1
